<svg width="30" height="30" viewBox="0 0 30 30" fill="none" xmlns="http://www.w3.org/2000/svg">
<path d="M15 30C23.2843 30 30 23.2843 30 15C30 6.71573 23.2843 0 15 0C6.71573 0 0 6.71573 0 15C0 23.2843 6.71573 30 15 30Z" fill="#0E76A8"/>
<path fill-rule="evenodd" clip-rule="evenodd" d="M9.25201 5.51855C8.01024 5.51855 7 6.5277 7 7.76809C7 9.00904 8.01024 10.0186 9.25201 10.0186C10.4928 10.0186 11.5022 9.00898 11.5022 7.76809C11.5023 6.5277 10.4928 5.51855 9.25201 5.51855ZM10.957 10.9691H7.54421C7.39275 10.9691 7.27002 11.0919 7.27002 11.2433V22.2071C7.27002 22.3586 7.39275 22.4813 7.54421 22.4813H10.957C11.1085 22.4813 11.2312 22.3586 11.2312 22.2071V11.2433C11.2312 11.0919 11.1085 10.9691 10.957 10.9691ZM16.6395 11.9553C17.2541 11.2858 18.2673 10.6965 19.638 10.6965C23.4819 10.6965 24.0002 13.4752 24.0002 16.1932V22.2071C24.0002 22.3585 23.8775 22.4813 23.726 22.4813H20.3194C20.168 22.4813 20.0452 22.3585 20.0452 22.2071V16.8765C20.0452 15.384 19.935 14.2424 18.5472 14.2424C17.273 14.2424 16.7765 14.9545 16.7765 16.7825V22.207C16.7765 22.3585 16.6537 22.4812 16.5023 22.4812H13.0969C12.9455 22.4812 12.8228 22.3585 12.8228 22.207V11.2432C12.8228 11.0918 12.9455 10.969 13.0969 10.969H16.3653C16.5167 10.969 16.6395 11.0918 16.6395 11.2432V11.9553Z" fill="white"/>
</svg>
