<svg width="67" height="18" viewBox="0 0 67 18" fill="none" xmlns="http://www.w3.org/2000/svg">
<path fill-rule="evenodd" clip-rule="evenodd" d="M9.86388 0.283747L15.6547 3.35371C16.5436 3.88707 17.3753 4.50932 17.4135 6.34115V7.81101H15.1372V5.80144L8.73052 2.36003L2.27629 5.80144V7.81101H0V6.34115C0.0349231 4.51885 0.860354 3.89342 1.74294 3.36325L7.59397 0.280564C8.30517 -0.0940501 9.15278 -0.0940501 9.86388 0.283747ZM9.86706 15.3384L15.134 12.3891V10.1921H17.4103V11.6589C17.3753 13.4907 16.5404 14.1162 15.6515 14.6463L9.86388 17.7163C9.15596 18.0941 8.30517 18.0941 7.59397 17.7194L1.74294 14.6368C0.860354 14.1066 0.0380971 13.478 0 11.6589V10.1921H2.27946V12.3891L7.59397 15.3416V12.9573C5.73993 12.5224 4.524 11.0176 4.524 8.99848C4.524 6.55391 6.21296 4.91257 8.73052 4.91257C11.2481 4.91257 12.9371 6.55391 12.9371 8.99848C12.9371 11.0144 11.718 12.5224 9.86706 12.9573V15.3384ZM8.73052 6.9222C7.38125 6.9222 6.63841 7.65867 6.63841 8.99848C6.63841 10.3001 7.41936 11.0748 8.73052 11.0748C10.0417 11.0748 10.8227 10.2969 10.8227 8.99848C10.8227 7.65867 10.0798 6.9222 8.73052 6.9222ZM57.2246 4.05539H54.053L49.9766 8.23331V1.99499H47.3607V14.6272H49.9766V11.4652L51.3227 10.0874L54.8722 14.6272H57.8088L52.9546 8.42066L57.2246 4.05539ZM61.4185 5.30289C61.9138 4.80762 63.2439 3.77901 65.7552 3.77901H66.2378L66.2472 6.11879L61.4185 6.13784V14.6271H58.7612V4.05204V4.04569H61.4185V5.30289ZM41.4812 3.7762C39.4748 3.7762 38.2145 5.07466 38.1223 5.17626V4.04605H35.4651V4.04923V14.6275H38.1223V5.90327H40.097C40.1986 5.90327 40.2971 5.90644 40.3923 5.90962C41.0559 5.93184 41.5606 6.03979 41.9352 6.23662C42.0591 6.30647 42.1733 6.38584 42.2781 6.47155C42.84 6.97313 42.9893 7.8272 42.9893 9.10025V14.6307H45.6052V8.30975C45.6021 5.69057 44.402 3.7762 41.4812 3.7762ZM29.779 4.39812C30.2298 4.67115 30.614 5.03307 30.941 5.49341V4.04255H33.5983V14.6239H30.941V13.0683C30.6362 13.6556 30.0806 14.1763 29.2964 14.5224C29.1218 14.6018 28.9346 14.6684 28.7377 14.7287C28.6933 14.7414 28.6488 14.7542 28.6012 14.7668L28.5631 14.7764C28.1154 14.8875 27.6456 14.9478 27.163 14.9478C26.3947 14.9478 25.6614 14.7954 24.9915 14.5224C22.9343 13.6842 21.4866 11.6873 21.4866 9.35711C21.4866 6.27122 24.0296 3.76635 27.163 3.76635C28.106 3.76635 28.9949 3.99494 29.779 4.39812ZM24.2137 9.36029C24.2137 11.373 25.5534 12.7699 27.6234 12.7699C29.4266 12.7699 31.0331 11.4905 31.0331 9.36029C31.0331 7.18551 29.4806 5.95057 27.6234 5.95057C25.5154 5.95057 24.2137 7.22361 24.2137 9.36029Z" fill="currentColor"/>
</svg>
