<svg width="220" height="55" viewBox="0 0 220 55" fill="none" xmlns="http://www.w3.org/2000/svg">
<path fill-rule="evenodd" clip-rule="evenodd" d="M0.514019 17.9907L8.73832 0L40.0935 2.86485L81.215 4.62617L98.6916 2.57009L107.43 15.9346L114.112 6.68224L127.991 2.57009L153.178 4.62617L191.729 7.71028L205.093 3.59813H211.776L218.972 9.25234L220 46.7757L213.832 52.4299L163.458 47.8037L153.692 49.3458L113.084 45.7477L103.318 51.4019L78.6449 50.8879L62.1963 51.4019L41.6355 55L0 50.3738L0.514019 17.9907ZM173.738 10.7943C171.682 12.8504 170.483 27.7569 170.14 34.9532C170.043 36.7577 169.072 38.4465 168.598 39.0654C167.57 40.6074 165.925 43.7943 167.57 44.2055C169.626 44.7196 184.019 43.1775 186.075 42.6635C188.131 42.1495 189.159 41.6355 189.159 40.6074C189.159 39.785 189.844 39.5794 190.187 39.5794C190.701 41.8068 192.963 46.3644 197.897 46.7756C204.065 47.2897 213.318 37.5233 213.832 32.3831C214.106 29.6371 210.714 27.918 207.337 26.2069C204.392 24.7151 201.46 23.2295 200.981 21.0747C200.159 17.3738 207.15 16.1059 210.748 15.9345C211.116 15.917 211.513 15.9605 211.905 16.0034C213.154 16.1404 214.346 16.271 214.346 14.3925C214.346 11.3084 212.29 8.73827 208.178 8.22426C204.065 7.71024 191.215 14.9065 191.215 20.5607C191.215 25.0841 198.754 28.6137 202.523 29.813C203.38 29.9844 205.196 30.7383 205.608 32.3831C206.122 34.4392 195.841 38.5514 193.785 39.0654C192.14 39.4766 191.729 37.866 191.729 37.0093C191.729 36.6666 191.626 35.8785 191.215 35.4672C190.804 35.056 190.358 34.9532 190.187 34.9532C190.033 34.9532 189.513 34.9996 188.763 35.0664C185.495 35.3573 177.878 36.0354 177.337 34.9532C176.399 33.0787 176.453 30.0825 178.879 29.813C183.505 29.299 190.187 26.2149 190.187 24.6729C190.187 23.4392 188.474 23.1308 187.617 23.1308L187.178 23.1567C184.202 23.3333 179.368 23.62 178.879 23.1308C178.515 22.7673 178.879 19.5327 179.393 19.0186C179.914 18.4969 183.51 17.6015 185.654 17.0674L186.075 16.9626C189.159 16.1915 191.832 14.4953 192.243 12.8504C192.654 11.2056 190.701 10.4517 189.673 10.2803C185.218 9.59494 175.794 8.73825 173.738 10.7943ZM119.252 40.6077C119.252 41.4301 119.595 42.321 119.766 42.6637C120.165 43.1961 121.044 42.8066 121.9 42.4267C122.438 42.1881 122.968 41.9532 123.364 41.9532C123.544 42.0221 123.776 42.2397 124.004 42.4548C124.428 42.8531 124.842 43.2429 124.906 42.6637C125.887 33.8343 133.422 32.0264 135.895 31.4329C136.014 31.4044 136.121 31.3788 136.215 31.3553C137.86 30.9441 138.271 33.24 138.271 34.4394C138.271 38.8942 138.785 47.7011 140.841 47.2899C143.038 46.8505 142.981 45.2841 142.918 43.554L142.918 43.553C142.908 43.2597 142.897 42.9617 142.897 42.6637C142.897 42.0019 143.242 41.4855 143.616 40.9255C144.171 40.0937 144.791 39.1659 144.439 37.5235C143.925 35.1248 143.103 29.8132 143.925 29.8132C144.747 29.8132 145.981 28.9566 146.495 28.2712C147.009 27.2432 147.009 26.2151 146.495 26.2151C145.981 26.2151 144.953 26.7291 144.953 26.7291C144.953 26.7291 145.467 24.5017 145.467 23.645C145.467 22.7961 144.532 23.1934 143.692 23.5506C143.006 23.8422 142.383 24.1071 142.383 23.645C142.383 21.5482 140.155 13.1933 138.785 9.2525C138.442 8.90983 136.934 8.32727 133.645 8.73849C129.532 9.2525 124.906 26.2151 124.906 26.7291C124.906 26.9173 124.424 27.1743 123.813 27.5002C122.754 28.0646 121.308 28.8356 121.308 29.8133C121.308 30.7385 121.863 30.9235 122.196 31.0346C122.418 31.1086 122.542 31.1497 122.336 31.3553C121.822 31.8693 119.252 39.5796 119.252 40.6077ZM134.158 19.0189C133.336 19.4301 132.102 24.3304 131.588 26.7292C131.588 27.2432 135.7 25.1871 136.214 24.1591C136.728 23.131 135.186 18.5049 134.158 19.0189ZM149.579 18.8269C149.168 19.2381 148.723 25.8518 148.551 29.1073C148.459 30.6704 147.148 31.4729 146.135 32.0932C145.482 32.4927 144.953 32.8166 144.953 33.2194C144.953 33.751 145.715 33.9221 146.412 34.0787C147.063 34.2249 147.658 34.3586 147.523 34.7615C147.112 35.9951 147.352 41.101 147.523 43.4998C147.695 44.5278 148.346 46.3783 149.579 45.5559C151.121 44.5278 152.149 39.3876 152.149 38.8736C152.149 38.3596 152.664 37.3316 152.664 37.8456C152.664 38.3596 153.692 39.3876 153.692 38.8736C153.692 38.3596 154.206 36.3035 154.72 34.7615C155.033 33.8222 157.253 32.8233 159.202 31.9463C159.813 31.6715 160.397 31.4086 160.888 31.1633C164.143 29.4499 170.654 24.4811 170.654 18.3129C170.654 10.6026 155.234 10.6026 154.72 10.6026C154.507 10.6026 154.117 10.4262 153.661 10.2196C153.016 9.92731 152.238 9.57454 151.635 9.57454C151 9.57454 150.757 10.1636 150.422 10.9776C150.215 11.4806 149.972 12.0696 149.579 12.6587C149.366 12.9792 149.152 13.2776 148.947 13.563L148.947 13.5635L148.947 13.5637L148.946 13.5652L148.945 13.566L148.945 13.5664C148.167 14.6522 147.523 15.5506 147.523 16.7708C147.523 17.6855 148.428 18.0576 149.056 18.3163C149.487 18.4937 149.789 18.6178 149.579 18.8269ZM157.289 18.3131C155.644 19.1356 155.576 24.1387 155.747 26.5374C155.811 28.5935 162.943 22.4253 162.943 20.3692C162.943 18.3131 159.345 17.2851 157.289 18.3131ZM8.22415 44.6437C8.42474 41.7787 8.5919 38.5766 8.72563 35.0375C8.85936 32.0039 8.99308 28.4648 9.12681 24.42C9.26054 20.3416 9.39427 15.8755 9.528 11.0218H13.2891H17.301C18.8054 10.9881 20.4269 10.9376 22.1653 10.8702C22.3325 12.5218 22.5331 14.2913 22.7671 16.1789L23.4692 21.8415C23.7366 23.965 24.0375 26.2065 24.3719 28.5659C24.7396 25.9031 25.1241 22.9033 25.5253 19.5664C25.9264 16.2295 26.2775 12.7914 26.5784 9.25228C27.8822 9.28598 29.2697 9.33654 30.7407 9.40395C31.9777 9.47137 33.3651 9.52193 34.903 9.55563C36.4743 9.58934 38.0623 9.6399 39.667 9.70731C39.667 12.5723 39.7339 15.8418 39.8676 19.5158C39.9679 22.6842 40.1017 26.4761 40.2688 30.8916C40.4694 35.3071 40.7536 40.2956 41.1213 45.8572C40.1852 45.8909 39.199 45.9414 38.1626 46.0088C37.2934 46.0762 36.2904 46.1268 35.1537 46.1605C34.0504 46.1942 32.9305 46.2279 31.7938 46.2616C31.8272 44.037 31.8439 41.5428 31.8439 38.7789C31.8439 36.4194 31.8105 33.6218 31.7436 30.386C31.7102 27.1165 31.6266 23.5437 31.4929 19.6675C31.2589 21.0831 31.0248 22.6336 30.7908 24.3189C30.5568 26.0042 30.3228 27.757 30.0887 29.5771C29.8547 31.3635 29.6374 33.1836 29.4368 35.0375C29.2362 36.8576 29.0691 38.644 28.9353 40.3968C28.0327 40.3968 27.0799 40.3799 26.0769 40.3462C25.2077 40.3125 24.2381 40.2956 23.1683 40.2956C22.1319 40.2619 21.0788 40.2114 20.009 40.144C19.8752 38.7283 19.6914 37.0936 19.4573 35.2397C19.2567 33.6218 19.006 31.6837 18.7051 29.4254C18.4042 27.1334 18.0198 24.5043 17.5517 21.5382V32.1556C17.5851 36.1329 17.652 40.363 17.7523 44.846C16.6156 44.8123 15.4956 44.7786 14.3924 44.7448C13.4228 44.7111 12.3864 44.6943 11.2832 44.6943C10.2134 44.6943 9.19368 44.6774 8.22415 44.6437ZM43.4786 35.1759C43.512 38.7609 43.5454 41.9973 43.5789 44.8851C45.6851 44.9183 47.691 44.9515 49.5966 44.9847C51.5023 45.0179 53.1906 45.0511 54.6616 45.0843C56.3666 45.1507 57.9547 45.2005 59.4257 45.2337V41.5989C59.4257 40.5699 59.4424 39.7069 59.4758 39.0098C59.4758 38.18 59.4925 37.4829 59.526 36.9186C58.4562 36.8854 57.4866 36.8522 56.6174 36.819C55.7481 36.7526 55.0126 36.7028 54.4109 36.6696C53.6754 36.6364 53.0401 36.6032 52.5052 36.57C52.4049 35.2423 52.3548 34.1801 52.3548 33.3834V32.1884C53.1906 32.1884 53.9762 32.205 54.7118 32.2382H56.6675H58.4227C58.3893 31.0101 58.3726 29.8981 58.3726 28.9022V26.2135V23.8236C56.3666 23.8899 54.8789 23.9231 53.9094 23.9231C52.9399 23.8899 52.3548 23.8733 52.1542 23.8733V22.529C52.1542 22.0975 52.1375 21.6162 52.104 21.0851C52.104 20.5208 52.1208 19.9067 52.1542 19.2428C52.8228 19.2096 53.5751 19.193 54.4109 19.193C55.2801 19.193 56.0992 19.1764 56.8681 19.1432C57.7708 19.1432 58.6902 19.1266 59.6263 19.0934C59.5594 17.7988 59.526 16.6205 59.526 15.5583V12.77V10.2804C56.4837 10.3136 53.9261 10.3468 51.8533 10.38H46.8385C45.334 10.4132 44.1138 10.4298 43.1777 10.4298C43.2445 15.4753 43.2947 20.0892 43.3281 24.2717C43.395 28.4541 43.4451 32.0889 43.4786 35.1759ZM61.7318 19.0684C61.7649 18.605 61.7814 17.9761 61.7814 17.1817C61.7814 16.5197 61.7649 15.6426 61.7318 14.5503C61.7318 13.458 61.7153 12.1009 61.6822 10.479H66.6398C68.2923 10.479 70.3249 10.4625 72.7375 10.4294C75.1502 10.3963 77.976 10.3466 81.2149 10.2804C81.1819 10.9755 81.1488 11.7533 81.1158 12.6139C81.0827 13.3752 81.0497 14.302 81.0166 15.3943C81.0166 16.4535 81.0332 17.6782 81.0662 19.0684H79.6781H77.9925C77.3646 19.0353 76.6375 19.0187 75.8112 19.0187V23.6858V29.4948C75.8443 31.6132 75.8773 33.9632 75.9104 36.545C75.9434 39.1268 75.9765 42.0065 76.0095 45.184C75.3816 45.1509 74.6379 45.1344 73.7786 45.1344H70.9528C69.8622 45.1675 68.5732 45.2006 67.086 45.2337C67.119 43.1815 67.1355 40.8149 67.1355 38.1338C67.1355 35.8499 67.119 33.1026 67.086 29.892C67.086 26.6813 67.0694 23.0569 67.0364 19.0187L61.7318 19.0684ZM89.4523 23.5218C89.7101 20.9579 89.9195 19.0106 90.0806 17.68C90.2094 19.0106 90.3544 20.4711 90.5155 22.0613C90.6766 23.4244 90.8377 25.0147 90.9988 26.8321C91.1921 28.6495 91.3854 30.5806 91.5787 32.6252H90.6605C90.4027 32.6252 90.0967 32.6414 89.7423 32.6739C89.3879 32.6739 89.0174 32.6576 88.6308 32.6252C88.9207 29.0877 89.1946 26.0532 89.4523 23.5218ZM80.5602 34.7185C80.0448 38.1262 79.5776 41.1282 79.1588 43.7246H83.0249C84.1203 43.7246 85.0224 43.7408 85.7312 43.7732C86.5688 43.8057 87.2615 43.8219 87.8092 43.8219L88.0992 39.7327H90.4189C91.1276 39.7327 91.7076 39.7489 92.1586 39.7814C92.223 40.755 92.2714 41.5826 92.3036 42.2641C92.368 42.9457 92.4164 43.5136 92.4486 43.968C92.4808 44.4872 92.513 44.9091 92.5452 45.2337C93.9628 45.2012 95.2354 45.1688 96.363 45.1363H99.2626C100.197 45.1363 101.035 45.1525 101.776 45.185C100.97 40.544 100.229 36.1302 99.5526 31.9436C98.9082 27.757 98.3444 24.041 97.8611 20.7956C97.2812 17.0309 96.7818 13.5258 96.363 10.2804H92.7868C91.6592 10.2804 90.3383 10.2966 88.8241 10.3291C87.3421 10.3615 85.7312 10.4102 83.9914 10.4751C83.3148 15.6029 82.6866 20.2114 82.1067 24.3007C81.5268 28.3575 81.0113 31.8301 80.5602 34.7185Z" fill="white"/>
</svg>
