<svg width="285" height="18" viewBox="0 0 285 18" fill="none" xmlns="http://www.w3.org/2000/svg">
<path fill-rule="evenodd" clip-rule="evenodd" d="M250.398 1.25188C251.635 2.06927 252.841 4.05759 252.841 5.28075C252.841 5.7181 252.389 5.87791 251.15 5.87791C249.752 5.87791 249.394 5.71615 249.077 4.9428C248.033 2.39435 243.472 1.95116 242.655 4.31875C242.336 5.24567 243.08 6.19949 244.769 7.02701L246.331 7.79256L243.075 7.80971C240.094 7.8253 239.82 7.76138 239.82 7.04728C239.82 6.61851 239.607 6.2677 239.346 6.2677C238.436 6.2677 239.218 2.75218 240.363 1.68844C242.578 -0.36653 247.617 -0.585983 250.398 1.25188ZM5.55885 2.88744C6.65592 4.45284 7.55391 5.94144 7.55391 6.19559C7.55391 6.44973 7.80592 6.65749 8.11378 6.65749C8.42207 6.65749 8.67408 6.43609 8.67408 6.16597C8.67408 5.89545 9.58971 4.39593 10.709 2.83365C12.7293 0.0142943 12.7574 -0.00597495 14.4543 0.109403L16.1641 0.225951V3.92896V7.63197L14.3426 7.75358C12.6688 7.86506 12.5432 7.80971 12.7957 7.07145C12.9901 6.50352 12.886 6.2677 12.4407 6.2677C12.0942 6.2677 11.6881 6.62553 11.5386 7.06326C11.2912 7.78671 10.9753 7.8483 8.04532 7.7454C5.27702 7.64795 4.83223 7.53608 4.88222 6.94983C4.91918 6.51678 4.64407 6.2677 4.12871 6.2677C3.58858 6.2677 3.35841 6.49612 3.44032 6.94983C3.53692 7.48229 3.21813 7.65847 1.98875 7.7528C0.509474 7.86662 0.417491 7.94965 0.476713 9.11707C0.536355 10.2958 0.548535 10.3048 0.714439 9.28858C0.870683 8.33203 1.06431 8.21665 2.51251 8.21665H4.13543L3.92039 12.6018C3.80195 15.0138 3.63184 17.2064 3.5428 17.4742C3.44788 17.7583 2.67547 17.9614 1.69013 17.9614H0L0.019321 8.99623L0.0382216 0.0310561L1.80101 0.0361222C3.52642 0.0411895 3.6058 0.101218 5.55885 2.88744ZM37.3747 3.92896V7.82686H35.6947H34.0146V3.92896V0.0310561H35.6947H37.3747V3.92896ZM47.875 3.92896V7.82686H46.1458C44.6241 7.82686 44.4431 7.7337 44.6363 7.04767C44.7573 6.61929 44.7149 6.1874 44.5422 6.0884C44.1554 5.86661 43.9521 0.950962 44.3074 0.416949C44.449 0.204903 45.3092 0.0310561 46.2198 0.0310561H47.875V3.92896ZM68.8756 3.92896V7.82686H67.1691C65.7957 7.82686 65.4773 7.69394 65.5374 7.14473C65.5785 6.76975 65.5823 6.37489 65.5458 6.2677C65.3622 5.73018 65.2824 0.37758 65.4555 0.216986C65.5655 0.114861 66.3799 0.0310561 67.2657 0.0310561H68.8756V3.92896ZM108.777 1.37661V2.72256L106.152 2.83833L103.527 2.95448L103.401 5.39067L103.277 7.82686H101.406C99.4907 7.82686 99.1543 7.55791 100.04 6.73545C100.404 6.39789 100.411 6.2677 100.064 6.2677C99.8002 6.2677 99.5268 5.52359 99.4554 4.61109L99.3265 2.95448L96.9114 2.83755L94.4963 2.72061V1.37583V0.0310561H101.637H108.777V1.37661ZM129 2.27235C129.034 3.50526 129.079 5.21527 129.1 6.0728L129.137 7.63197L127.357 7.75163C125.97 7.84518 125.303 7.78679 125.303 7.78679C125.303 7.78679 125.814 6.64346 126.102 6.6267C126.522 6.60214 126.522 6.55654 126.102 6.39945C125.744 6.26536 125.577 5.22072 125.577 3.11703V0.0310561H127.257H128.937L129 2.27235ZM150.66 3.24683C151.151 5.01569 151.682 6.76975 151.84 7.14473C152.089 7.73526 151.864 7.82686 150.162 7.82686C148.512 7.82686 148.22 7.71733 148.347 7.14473C148.43 6.76975 148.282 6.28719 148.018 6.0728C147.564 5.70484 146.158 1.48692 146.158 0.492566C146.158 0.208799 146.852 0.0310561 147.963 0.0310561H149.769L150.66 3.24683ZM161.272 0.323399C161.268 0.484382 160.739 2.19439 160.096 4.12385L158.927 7.63197L157.162 7.75163C155.509 7.86428 154.989 7.55635 155.708 6.88981C155.878 6.73194 156.022 6.39555 156.027 6.14258C156.033 5.88999 156.386 4.41113 156.813 2.85704L157.588 0.0310561H159.433C160.448 0.0310561 161.275 0.162415 161.272 0.323399ZM191.44 1.4799L191.57 2.73347L186.819 2.84417L182.069 2.95448V5.39145V7.82842L180.145 7.82764L178.221 7.82686L178.127 3.91882L178.034 0.0111767L184.671 0.118368L191.309 0.225951L191.44 1.4799ZM218.805 0.540121C220.672 1.13689 222.18 3.18524 222.18 5.12406C222.18 7.55479 221.915 7.82686 219.55 7.82686C217.522 7.82686 217.46 7.79568 218.125 7.11394C219.112 6.10165 218.986 4.82743 217.789 3.71652C216.944 2.93265 216.34 2.75959 214.449 2.75959H212.139L212.015 5.19578L211.89 7.63197L210.151 7.74968L208.412 7.8674L208.353 3.94923L208.294 0.0310561L212.822 0.0528832C215.312 0.0649667 218.005 0.284418 218.805 0.540121ZM283.082 1.38246V2.73386L278.356 2.84417L273.631 2.95448V5.39145V7.82842L271.892 7.82764C271.892 7.82764 270.036 7.79256 268.856 7.80971C270.294 7.04728 270.094 3.92896 270.094 3.92896L270.036 0.0310561H276.558H283.082V1.38246ZM10.6372 9.38602C9.65649 10.9265 7.56777 11.0333 6.55218 9.59456C6.17921 9.0664 5.87386 8.54018 5.87386 8.42519C5.87386 8.31059 7.1129 8.21665 8.62788 8.21665H11.3815L10.6372 9.38602ZM16.5207 12.6018C16.4023 15.0138 16.2322 17.2064 16.1431 17.4742C16.0482 17.7583 15.2754 17.9614 14.2871 17.9614H12.594L12.5987 14.5507C12.6012 12.6751 12.7205 10.4825 12.8637 9.67837C13.1174 8.25329 13.1695 8.21665 14.9297 8.21665H16.7358L16.5207 12.6018ZM38.5306 10.7253C38.2597 13.0746 38.3097 13.2972 39.3181 14.2335C41.2708 16.0456 44.9707 15.1171 45.1017 12.7815C45.1286 12.3075 45.1941 11.7443 45.2479 11.5299C45.3016 11.3155 45.3743 10.4825 45.4096 9.67837L45.4734 8.21665H47.3971H49.3203L49.0234 10.8477C48.4563 15.8756 46.3907 17.9575 41.9667 17.9599C36.9106 17.963 34.9773 16.1041 34.9748 11.2375L34.9731 8.21665H36.8968H38.82L38.5306 10.7253ZM69.1717 11.6273L69.0856 15.038L73.8107 15.1483L78.5359 15.2586V16.61V17.9614H72.0958C68.5535 17.9614 65.5768 17.8889 65.4807 17.8004C65.384 17.7119 65.3639 15.5194 65.4353 12.928L65.5651 8.21665H67.4114H69.2582L69.1717 11.6273ZM104.542 10.0253C104.395 11.0196 104.275 13.2122 104.275 14.8977V17.9614H102.385H100.495L100.5 14.5507C100.502 12.6751 100.621 10.4825 100.765 9.67837C101.02 8.24121 101.057 8.21665 102.917 8.21665H104.809L104.542 10.0253ZM130.168 10.2631C130.022 11.3888 129.901 13.5813 129.9 15.1354L129.896 17.9614H128.216H126.536L126.54 14.5507C126.543 12.6751 126.662 10.4825 126.805 9.67837C127.056 8.27239 127.13 8.21665 128.749 8.21665C128.749 8.21665 130.379 8.21665 131.533 8.23155C130.574 8.67631 130.168 10.2631 130.168 10.2631ZM153.581 8.8333C153.722 9.17242 153.85 9.9177 153.866 10.4899C153.882 11.0617 154.038 11.8678 154.212 12.281C154.482 12.9183 154.66 12.7706 155.393 11.3065C155.867 10.3574 156.367 9.27415 156.503 8.89878C156.685 8.39596 157.207 8.21665 158.489 8.21665C160.174 8.21665 160.219 8.24939 159.939 9.28468C159.78 9.87209 159.464 10.4591 159.237 10.5893C159.01 10.7199 158.307 12.3878 157.675 14.2962L156.525 17.7665L154.607 17.8831L152.688 18L151.604 14.7647C151.008 12.9857 150.407 10.9308 150.27 10.1983C150.132 9.46593 149.922 8.72065 149.803 8.54174C149.684 8.36282 150.428 8.21665 151.457 8.21665C152.774 8.21665 153.402 8.39869 153.581 8.8333ZM189.537 9.38602V10.5554H186.177H182.817V12.8813V15.2072L187.542 15.3175L192.267 15.4278V16.5971V17.7665L185.652 17.8737L179.037 17.9813V14.9074C179.037 13.2169 179.157 11.0196 179.304 10.0253L179.571 8.21665H184.554H189.537V9.38602ZM222.718 8.61969C222.718 8.84109 222.057 9.38486 221.248 9.82766C220.44 10.2701 219.778 10.6786 219.778 10.7347C219.778 10.7912 220.534 12.3344 221.458 14.1645C222.382 15.9945 223.138 17.5973 223.138 17.7264C223.138 17.8558 222.369 17.9614 221.43 17.9614H219.721L217.845 14.2358L215.969 10.5098L214.408 10.6302L212.848 10.7503L212.727 14.3559L212.607 17.9614H210.942H209.278L209.283 14.5507C209.285 12.6751 209.404 10.4825 209.548 9.67837L209.808 8.21665H216.263C220.427 8.21665 222.718 8.3597 222.718 8.61969ZM250.758 9.17865C253.668 10.4361 254.619 12.7316 253.262 15.2212C252.244 17.0875 250.206 17.9614 246.869 17.9614C243.344 17.9614 241.522 17.0988 240.182 14.7975C239.11 12.9542 239.496 12.1146 241.418 12.1146C242.696 12.1146 242.986 12.2826 243.342 13.2301C243.826 14.5192 245.24 15.2329 247.309 15.2329C248.725 15.2329 250.439 14.1559 250.439 13.2664C250.439 12.5461 248.449 10.9842 247.22 10.7402C245.743 10.4466 242.057 8.94868 241.776 8.5277C241.663 8.35658 243.14 8.21821 245.059 8.22055C247.875 8.22367 248.976 8.40882 250.758 9.17865ZM281.52 9.37043V10.5238L278.055 10.6372L274.59 10.7503V12.8941V15.038L279.315 15.1483L284.04 15.2586V16.61V17.9614H277.53H271.02L271.024 14.5507C271.027 12.6751 271.146 10.4825 271.289 9.67837L271.55 8.21665H276.535H281.52V9.37043Z" fill="white"/>
</svg>
