<svg width="236" height="68" viewBox="0 0 236 68" fill="none" xmlns="http://www.w3.org/2000/svg">
<path fill-rule="evenodd" clip-rule="evenodd" d="M47.2548 40.3922C47.7165 40.6577 48.2079 40.8671 48.7187 41.016C48.7457 40.9885 48.7691 40.9578 48.7884 40.9244C48.9587 40.5188 49.1289 40.1124 49.2991 39.705C49.312 39.649 49.3166 39.5913 49.3127 39.5339L48.2599 39.0718C48.2602 38.948 48.2643 38.826 48.2684 38.706C48.2779 38.424 48.287 38.1533 48.2446 37.8969C48.1688 37.8355 48.0841 37.8336 48 37.8317C47.9038 37.8295 47.8084 37.8274 47.728 37.736L47.7382 37.6544L47.753 37.5369L47.753 37.5367L47.7531 37.536C47.7721 37.3869 47.7916 37.2326 47.808 37.078C47.8123 37.0048 47.8123 36.9313 47.808 36.8581C47.732 36.8164 47.6527 36.8146 47.5746 36.8128C47.4701 36.8104 47.3678 36.808 47.2787 36.71C47.2837 36.5846 47.2804 36.4566 47.277 36.3265C47.2707 36.0829 47.2642 35.8316 47.3119 35.5745L47.9927 35.53C48.0822 35.2094 48.128 34.8781 48.1289 34.5451C48.0262 34.5202 47.9251 34.5207 47.8268 34.5211C47.7253 34.5216 47.6269 34.522 47.5331 34.4946C47.516 34.4489 47.5034 34.4016 47.4957 34.3534V32.2595C47.5057 32.1883 47.5249 32.1187 47.5527 32.0524L47.615 32.0526L47.6856 32.0533L47.7242 32.0538L47.7255 32.0538C47.8333 32.0551 47.9358 32.0563 48.0361 32.0524C48.0785 32.0507 48.1213 32.0523 48.1641 32.0539C48.2751 32.058 48.3862 32.0621 48.4906 32.0096C48.5064 31.9667 48.5189 31.9227 48.528 31.8778C48.6704 30.8909 48.81 29.9043 48.9467 28.9179C49.155 27.3942 49.3646 25.8707 49.5757 24.3476C49.772 22.9374 49.9706 21.5274 50.1714 20.1178C50.1763 20.0831 50.1806 20.0482 50.1848 20.0131C50.2027 19.8653 50.2209 19.7153 50.2897 19.577L50.3602 19.5567L50.4026 19.5444C50.4895 19.5193 50.5751 19.4945 50.6608 19.4717C54.6324 18.4192 58.604 17.3652 62.5756 16.3099C62.6531 16.2901 62.7273 16.264 62.8257 16.2294C62.8765 16.2115 62.9337 16.1914 63.0012 16.1687L50.1561 12.6842C50.0495 12.2727 49.9441 11.8667 49.8393 11.463L49.8318 11.4344L49.8269 11.4155L49.8265 11.4138L49.8245 11.406C49.715 10.9845 49.6062 10.5654 49.4974 10.1453C49.3667 9.64077 49.2388 9.13622 49.1108 8.63168C49.0255 8.29506 48.9401 7.95844 48.854 7.62183C48.6757 6.92549 48.4963 6.23033 48.3167 5.5344L48.3167 5.53438L48.3165 5.53365L48.2046 5.10004C48.1248 4.79073 48.045 4.48026 47.9652 4.16995L47.9647 4.1678L47.9644 4.16681C47.8276 3.6343 47.6908 3.10227 47.5544 2.5774C47.4885 2.32372 47.4247 2.06949 47.3603 1.81287L47.36 1.81166L47.3598 1.81098L47.3598 1.81074C47.2132 1.22666 47.0636 0.630237 46.8787 0C46.8568 0.0631499 46.8376 0.116788 46.8206 0.164233L46.8199 0.166431L46.8198 0.166639L46.8197 0.166801C46.787 0.25822 46.7626 0.326656 46.7425 0.396195C45.8114 3.65189 44.8809 6.90816 43.951 10.165L43.8617 10.4748C43.6904 11.0688 43.5191 11.6626 43.3553 12.2589C43.3431 12.329 43.3098 12.3936 43.2598 12.4439C43.2099 12.4943 43.1458 12.528 43.0761 12.5405C43.0234 12.5513 42.9731 12.5658 42.9218 12.5807C42.8918 12.5894 42.8615 12.5982 42.8302 12.6063L37.0898 14.1732C35.0126 14.7391 32.9357 15.3073 30.8591 15.8777C30.8461 15.8812 30.8325 15.8838 30.8188 15.8865C30.7509 15.8996 30.6807 15.9131 30.6694 16.0292L33.82 16.9474L36.9195 17.8544L40.0608 18.7735C40.3537 18.8589 40.6469 18.9432 40.9403 19.0276C41.6931 19.244 42.4474 19.4608 43.2012 19.6985C43.2691 20.1906 43.3354 20.6736 43.4013 21.1536L43.4014 21.1548L43.5357 22.1321L43.5718 22.3943C43.6704 23.1111 43.7689 23.8274 43.8668 24.5444L43.9545 25.1863C44.0352 25.7764 44.1159 26.3663 44.1953 26.9566L44.2715 27.5246L44.2723 27.5307C44.3548 28.1451 44.4373 28.7604 44.5204 29.3697C44.5519 29.6013 44.5813 29.8332 44.6108 30.0657L44.6108 30.0659L44.6109 30.066L44.6109 30.0662L44.6109 30.0664L44.6109 30.0666L44.611 30.0668L44.611 30.067L44.611 30.0671L44.611 30.0673L44.611 30.0675L44.6111 30.0677L44.6111 30.0679L44.6111 30.0681L44.6111 30.0682L44.6112 30.0684L44.6112 30.0687C44.6833 30.6376 44.7558 31.2094 44.8608 31.7846C45.0351 31.7983 45.2007 31.7978 45.3625 31.7973H45.3626C45.4726 31.797 45.5808 31.7967 45.6889 31.8008C45.7662 31.8093 45.8428 31.8239 45.9178 31.8445C45.9748 32.351 45.968 32.482 45.8659 32.7652C45.7998 32.7652 45.7323 32.7646 45.664 32.7639C45.5247 32.7626 45.3817 32.7612 45.2395 32.7652C45.1533 32.7746 45.068 32.7906 44.9842 32.8131C45.0095 32.9622 45.0257 33.1089 45.0417 33.2541C45.0719 33.5283 45.1014 33.7968 45.191 34.0642C45.528 34.0821 45.8624 34.0798 46.1967 34.0774H46.1969C46.5312 34.0751 46.8655 34.0727 47.2021 34.0907C47.2523 34.4082 47.2812 34.6991 47.1825 35.0072C47.1286 35.0084 47.0761 35.01 47.0246 35.0117C46.9315 35.0146 46.8414 35.0174 46.751 35.0174H44.9221C44.8234 35.0228 44.7251 35.0337 44.6276 35.05C44.5796 35.3066 44.587 35.5485 44.5944 35.7954V35.7955L44.5945 35.7961C44.5965 35.8643 44.5986 35.9329 44.5995 36.0024C44.6007 36.093 44.597 36.1842 44.5934 36.2753C44.584 36.5069 44.5746 36.7385 44.6455 36.9608C44.7859 37.0002 44.9268 36.9958 45.0669 36.9915H45.067C45.2309 36.9864 45.3939 36.9813 45.5544 37.0463C45.5732 37.2059 45.5969 37.3639 45.6206 37.522C45.6621 37.7998 45.7038 38.0779 45.7195 38.3658L45.2089 38.4437C45.1408 38.8741 45.1502 39.4329 45.2259 39.7461C45.328 39.772 45.4396 39.7709 45.5486 39.7699C45.6087 39.7693 45.6681 39.7687 45.7246 39.7726C45.7689 39.7757 45.8143 39.7737 45.8607 39.7715C45.9808 39.7661 46.1069 39.7603 46.2353 39.8437L45.9536 39.9669C45.9774 40.1606 46.0012 40.3509 46.0248 40.5393L46.025 40.541L46.0252 40.5428C46.0588 40.8111 46.0919 41.0756 46.1238 41.3403C46.126 41.3562 46.117 41.3729 46.1062 41.3929L46.1 41.4046C46.0964 41.4113 46.0929 41.4183 46.0897 41.4259L45.8557 41.4858C45.8007 41.8952 45.8007 42.3102 45.8557 42.7197L46.1502 42.7865C46.1562 42.8181 46.1615 42.8497 46.1668 42.8811C46.178 42.9473 46.189 43.013 46.2063 43.0774L46.2115 43.0967C46.2282 43.159 46.2484 43.2341 46.2914 43.2597C46.4027 43.325 46.4144 43.4223 46.4268 43.5254L46.4302 43.5523L46.6004 44.8222L46.6007 44.8243C46.6082 44.8769 46.617 44.9376 46.7161 44.9266L46.7624 44.634L46.8063 44.3564L46.854 44.0555C46.9722 44.0451 47.089 44.0498 47.2048 44.0544H47.2049H47.2049H47.205H47.205H47.2051H47.2051H47.2052H47.2052H47.2052H47.2053H47.2053H47.2054H47.2054H47.2055H47.2055H47.2056C47.4047 44.0624 47.6009 44.0702 47.7961 44.0016C47.8382 43.7239 47.8322 43.4411 47.7782 43.1655L47.3961 43.1493L47.0089 43.1262C46.9949 42.8792 47.0322 42.6512 47.0688 42.4277C47.0877 42.312 47.1065 42.1975 47.1178 42.0822C47.1406 41.8497 47.1756 41.6187 47.2118 41.3794L47.2118 41.3792C47.2282 41.2707 47.2449 41.1605 47.2608 41.0476L46.6948 40.9818C46.6796 40.9257 46.669 40.8685 46.6633 40.8106C46.6628 39.9549 46.6645 39.0992 46.6684 38.2435C46.6754 38.2031 46.6895 38.1642 46.7102 38.1288L46.7176 38.1272C46.8442 38.0995 46.9643 38.0732 47.0761 38.163C47.1065 38.284 47.1026 38.4077 47.0988 38.5303C47.0943 38.6755 47.0899 38.8191 47.1425 38.9546C47.2386 38.9889 47.3373 38.9879 47.4368 38.987C47.5533 38.9859 47.6707 38.9848 47.7859 39.0401C47.7087 39.2829 47.6101 39.5104 47.5134 39.7338C47.4181 39.9538 47.3245 40.1697 47.2548 40.3922ZM48.2744 29.5802C48.3535 29.9465 48.3535 30.7252 48.2684 31.0401V31.041C47.796 31.102 47.318 31.1058 46.8446 31.0521C46.7587 30.7791 46.7467 30.0115 46.8216 29.5914C47.1212 29.5084 47.8906 29.5024 48.2744 29.5802ZM46.4727 41.6663C46.4837 41.6024 46.5014 41.5399 46.5255 41.4798H46.7765C46.871 41.5936 46.877 42.7899 46.7978 43.2289C46.7615 43.244 46.7235 43.255 46.6846 43.2614C46.6321 43.2596 46.5798 43.2542 46.528 43.2451C46.4633 42.9696 46.4344 42.1866 46.4727 41.6663ZM24.2842 12.5079L24.2464 13.3442L24.2463 13.3465L24.2462 13.347C24.2019 14.3269 24.1577 15.3043 24.114 16.2979C24.0284 16.2986 23.9429 16.2914 23.8586 16.2765C22.5471 15.9108 21.21 15.6453 19.8587 15.4824C18.7755 15.3426 17.6879 15.2536 16.5957 15.2154C14.7395 15.1469 12.8817 15.1118 11.0255 15.206C9.84933 15.2659 8.67827 15.3771 7.54125 15.71C7.21402 15.802 6.89493 15.9211 6.58721 16.066C6.30625 16.2009 6.04274 16.3699 5.80253 16.5691C4.83998 17.3786 5.02636 18.7169 5.69104 19.3844C5.94438 19.6343 6.23824 19.8389 6.55998 19.9894C7.04895 20.217 7.56323 20.3851 8.09189 20.49C8.93837 20.6683 9.79596 20.7883 10.6587 20.8494C11.2409 20.8928 11.8235 20.9339 12.4062 20.975L12.4063 20.975L12.4065 20.975L12.4066 20.975L12.4068 20.975L12.4069 20.975L12.4071 20.975L12.4072 20.975L12.4073 20.9751L12.4075 20.9751L12.4076 20.9751L12.4078 20.9751L12.4079 20.9751L12.4081 20.9751L12.4082 20.9751L12.4083 20.9751L12.4085 20.9752L12.4086 20.9752C13.4229 21.0467 14.4375 21.1183 15.451 21.2019C17.0025 21.3346 18.5514 21.5057 20.0714 21.8737C20.9142 22.0682 21.7346 22.3507 22.5191 22.7165C23.0462 22.964 23.5426 23.2728 23.9982 23.6364C24.8977 24.3464 25.5468 25.3278 25.8501 26.4363C26.1702 27.595 26.2064 28.8143 25.9557 29.9901C25.6705 31.3687 24.9412 32.4802 23.8476 33.3539C23.005 34.0273 22.0501 34.4886 21.0391 34.8386C19.8958 35.2206 18.7179 35.4889 17.5225 35.6395C15.5923 35.9056 13.6519 35.9518 11.708 35.9133C10.5744 35.8911 9.43997 35.8603 8.30891 35.7884C7.36873 35.7286 6.43097 35.6338 5.49359 35.5389L5.49333 35.5389L5.49032 35.5386C5.31467 35.5208 5.13903 35.503 4.96339 35.4855C3.58126 35.3469 2.20935 35.1329 0.845954 34.8651C0.778869 34.8518 0.71123 34.8404 0.643172 34.829L0.643117 34.829C0.431448 34.7935 0.215724 34.7573 0 34.6589C0.0199712 33.7826 0.0580231 32.9041 0.0962414 32.0218C0.116654 31.5506 0.137115 31.0782 0.154893 30.6045C0.24568 30.5944 0.337296 30.5944 0.428084 30.6045C1.43234 30.8544 2.44425 31.0674 3.46637 31.2266C4.40254 31.3738 5.34551 31.4979 6.28679 31.6202C7.49614 31.7768 8.71316 31.871 9.93103 31.9172C10.9867 31.9569 12.0436 31.9638 13.1007 31.9707L13.5446 31.9736C14.5799 31.9777 15.6142 31.9122 16.6408 31.7777C17.5276 31.6639 18.4067 31.5047 19.2459 31.1847C19.5647 31.0668 19.8733 30.9226 20.1684 30.7534C20.4236 30.6004 20.6606 30.4187 20.8748 30.2117C21.7803 29.3423 21.7259 27.7225 20.7157 26.9095C20.4064 26.6605 20.0622 26.4587 19.6944 26.3105C18.9412 26.0008 18.1506 25.8382 17.3506 25.7201C16.1419 25.5402 14.9232 25.4563 13.7048 25.3723L13.4995 25.3581C12.1004 25.2614 10.6995 25.1587 9.30465 25.0158C7.89359 24.8712 6.49615 24.6282 5.14636 24.1764C4.42919 23.9452 3.74315 23.6259 3.10382 23.2257C1.53021 22.2177 0.708083 20.763 0.564253 18.9112C0.503262 18.2288 0.540236 17.5412 0.67404 16.8695C0.963401 15.4832 1.68765 14.3793 2.80595 13.5322C3.64169 12.8973 4.58126 12.4711 5.57189 12.1528C6.70877 11.7995 7.87755 11.5598 9.06124 11.4374C11.0527 11.2149 13.0493 11.1893 15.0502 11.2449C16.2416 11.2774 17.4331 11.3373 18.6153 11.4528C20.4229 11.6282 22.2135 11.9055 23.971 12.377C24.0391 12.3949 24.1071 12.4155 24.1735 12.4394C24.2122 12.4592 24.2492 12.4821 24.2842 12.5079ZM116.876 27.176C116.845 27.1278 116.812 27.0777 116.776 27.0251L116.781 27.0231L116.781 27.023C116.97 26.9495 117.126 26.8886 117.289 26.8385C118.211 26.5042 119.073 26.0216 119.842 25.4095C121.838 23.7734 122.835 21.6914 122.588 19.0772C122.444 17.3697 121.713 15.7661 120.52 14.5419C119.287 13.2541 117.752 12.5439 116.024 12.2084C115.228 12.0682 114.42 12.0046 113.612 12.0184H98.1295C98.0918 12.0184 98.054 12.0175 98.0162 12.0166C97.9405 12.0146 97.8646 12.0127 97.7891 12.0184C97.7029 12.0315 97.6176 12.05 97.5338 12.0741V35.2553C97.5338 35.2936 97.533 35.3318 97.5323 35.3699C97.5308 35.446 97.5293 35.5218 97.5338 35.5976C97.5373 35.6529 97.548 35.7082 97.5591 35.7651L97.5591 35.7652C97.5642 35.7911 97.5693 35.8173 97.5738 35.844C97.6363 35.8553 97.6994 35.863 97.7627 35.8671H102.144C102.211 35.8612 102.278 35.8486 102.342 35.8295C102.389 35.6831 102.386 35.5452 102.382 35.4092V35.4091C102.381 35.3734 102.381 35.3379 102.381 35.3024V28.2077C102.367 28.025 102.38 27.8413 102.421 27.6626H111.559C111.597 27.714 111.633 27.763 111.668 27.8104L111.668 27.8109L111.668 27.8111C111.731 27.8967 111.791 27.9774 111.849 28.0588L117.111 35.4675C117.171 35.5528 117.234 35.636 117.294 35.7145L117.346 35.7837C117.364 35.8075 117.382 35.8308 117.398 35.8535C118.391 35.9065 122.521 35.8851 122.887 35.8209C122.866 35.6979 122.794 35.6053 122.723 35.5145L122.723 35.5144C122.7 35.4852 122.678 35.4562 122.657 35.4264C120.789 32.76 118.919 30.0942 117.047 27.429C116.99 27.348 116.935 27.2653 116.877 27.1764L116.876 27.176ZM102.559 23.5451C102.514 23.5417 102.467 23.5382 102.42 23.5355C102.402 23.461 102.39 23.3856 102.381 23.3096C102.343 22.4787 102.371 16.5049 102.416 16.1558C102.429 16.1538 102.441 16.1516 102.453 16.1493L102.482 16.1437C102.535 16.1335 102.59 16.1229 102.65 16.1199C102.706 16.117 102.763 16.118 102.82 16.1189C102.848 16.1194 102.876 16.1199 102.905 16.1199H112.472C113.025 16.1068 113.578 16.1423 114.125 16.226C114.687 16.3133 115.231 16.4898 115.737 16.7488C116.918 17.3829 117.512 18.3815 117.557 19.719C117.573 20.1041 117.532 20.4895 117.434 20.8622C117.235 21.6289 116.756 22.2924 116.094 22.7217C115.554 23.0663 114.952 23.2991 114.322 23.4063C113.778 23.5088 113.226 23.5595 112.672 23.5577H102.806C102.725 23.5577 102.644 23.5516 102.559 23.5451ZM235.813 35.8836C235.875 35.8866 235.936 35.8897 235.997 35.892L236 31.7854C235.943 31.7831 235.887 31.7801 235.83 31.777C235.716 31.7709 235.603 31.7649 235.489 31.7649H222.383H218.809C218.797 31.7649 218.786 31.765 218.774 31.7652C218.753 31.7656 218.731 31.7664 218.709 31.7671C218.588 31.7712 218.464 31.7754 218.337 31.7264C218.294 31.5923 218.297 31.4582 218.301 31.3261C218.302 31.2897 218.303 31.2533 218.303 31.2172V12.7073C218.303 12.6605 218.304 12.6138 218.305 12.567L218.305 12.5643C218.306 12.4692 218.308 12.3741 218.303 12.2794C218.294 12.1985 218.28 12.1182 218.261 12.039C218.199 12.0284 218.136 12.0212 218.073 12.0176H213.691C213.627 12.0223 213.563 12.0323 213.501 12.0475C213.429 12.525 213.394 33.1058 213.457 35.5796C213.458 35.6343 213.466 35.6893 213.473 35.7478C213.477 35.7764 213.481 35.8057 213.484 35.8363C213.669 35.8752 213.859 35.887 214.047 35.8714H235.447C235.569 35.8714 235.691 35.8775 235.813 35.8836ZM70.4378 31.1222L69.4446 32.6942C69.3219 32.8882 69.1997 33.0826 69.0774 33.277C68.8664 33.6124 68.6555 33.9478 68.4421 34.2815C68.3289 34.4585 68.218 34.6364 68.1072 34.8141L68.1072 34.8141L68.1071 34.8142L68.1071 34.8143L68.107 34.8144L68.107 34.8144L68.107 34.8145L68.1069 34.8146L68.1069 34.8146L68.1068 34.8147L68.1068 34.8148L68.1067 34.8148L68.1067 34.8149L68.1066 34.815L68.1066 34.815L68.1065 34.8151C67.8875 35.1664 67.6691 35.5167 67.4353 35.8569H62.1587C62.0976 35.7648 62.1409 35.7051 62.1835 35.6465L62.1972 35.6274L62.2047 35.6164C62.4259 35.2731 62.6492 34.9314 62.8725 34.5897L62.8728 34.5891L62.8732 34.5886L62.8735 34.5881L62.8739 34.5876L62.8742 34.587L62.8745 34.5865L62.8749 34.586L62.8752 34.5854L62.8756 34.5849L62.8759 34.5844L62.8763 34.5839L62.8766 34.5833L62.877 34.5828L62.8773 34.5823L62.8776 34.5818L63.0659 34.2935C67.8966 26.8819 72.7272 19.4708 77.5578 12.0604C77.6233 11.9592 77.6905 11.8589 77.772 11.7372L77.7724 11.7366L77.8786 11.5778C77.897 11.609 77.9121 11.6358 77.9256 11.6596L77.9257 11.6598L77.9257 11.6599L77.926 11.6603C77.9465 11.6967 77.9631 11.7262 77.9816 11.754L93.6046 35.7439C93.6156 35.7619 93.6046 35.7961 93.5986 35.8227C93.2582 35.886 89.3433 35.9082 88.3399 35.8552C88.231 35.7936 88.1721 35.6893 88.1134 35.5854L88.1133 35.5853C88.1025 35.5662 88.0918 35.5472 88.0807 35.5284C88.0734 35.516 88.0659 35.5036 88.0582 35.4915C87.2139 34.1583 86.3714 32.8234 85.5305 31.4868C85.4656 31.3869 85.4007 31.29 85.3388 31.1976L85.282 31.1128C84.8242 31.0649 70.7834 31.0726 70.4378 31.1222ZM73.1663 26.9027C73.2657 26.9333 73.3759 26.9293 73.4875 26.9252C73.5259 26.9238 73.5645 26.9224 73.6029 26.9224H80.2812H82.3237C82.3288 26.9224 82.334 26.9225 82.3392 26.9228L82.3474 26.9232L82.3711 26.9249C82.4361 26.93 82.5045 26.9354 82.5467 26.8608C82.3765 26.4885 79.8863 22.5026 78.0557 19.6642C78.0199 19.6071 77.9803 19.5557 77.9401 19.5036C77.9202 19.4777 77.9001 19.4516 77.8804 19.4246C77.5987 19.7438 74.6242 24.3758 73.2446 26.6443C73.2367 26.6571 73.2276 26.6696 73.2184 26.6825C73.1786 26.7374 73.1353 26.7973 73.1663 26.9027ZM176.827 35.8544H182.142C182.141 35.8411 182.141 35.8291 182.141 35.8183L182.141 35.8068L182.141 35.7844C182.142 35.7567 182.142 35.7396 182.135 35.7277C176.933 27.7445 171.732 19.7596 166.529 11.7729C166.493 11.7255 166.454 11.6803 166.413 11.6377C166.296 11.728 166.227 11.8432 166.16 11.9547C166.14 11.988 166.12 12.0209 166.1 12.0527L151.697 34.1438L151.545 34.3767C151.278 34.7877 151.01 35.1989 150.744 35.6113C150.742 35.6153 150.739 35.6193 150.737 35.6233L150.731 35.6324L150.721 35.6465L150.721 35.6466C150.682 35.7024 150.64 35.7642 150.706 35.8544H155.977C156.003 35.8144 156.029 35.775 156.055 35.7357L156.105 35.6607L156.105 35.6601C156.148 35.5961 156.19 35.532 156.232 35.4667C157.074 34.1307 157.917 32.7955 158.761 31.4611C158.781 31.4298 158.799 31.3969 158.818 31.364C158.875 31.2616 158.933 31.1592 159.04 31.1009C159.712 31.0581 173.469 31.0735 173.831 31.1206C174.307 31.8649 174.78 32.6166 175.254 33.3701L175.257 33.3742C175.777 34.2012 176.299 35.0303 176.827 35.8544ZM166.319 19.5192C166.348 19.4784 166.38 19.4336 166.416 19.3828L171.095 26.8172C171.063 26.9279 170.997 26.9257 170.936 26.9238L170.925 26.9235L170.913 26.9233H170.616H162.153C162.079 26.9233 162.004 26.9211 161.928 26.9188C161.847 26.9164 161.764 26.9139 161.677 26.9139C161.681 26.774 161.748 26.6807 161.811 26.5915C161.828 26.5671 161.845 26.5431 161.861 26.5185C162.897 24.8859 163.933 23.2532 164.969 21.6205C165.367 20.9958 165.764 20.372 166.161 19.749C166.206 19.6773 166.256 19.6079 166.319 19.5201L166.319 19.5192ZM152.848 16.1464H133.827C133.713 16.2496 133.719 16.359 133.725 16.4622C133.726 16.4857 133.728 16.5088 133.727 16.5315V19.2244V22.1339C133.727 22.2256 133.731 22.3177 133.734 22.4145L133.734 22.4159C133.736 22.4667 133.738 22.5188 133.739 22.5728C133.824 22.5926 133.909 22.6078 133.995 22.6182C134.08 22.6228 134.165 22.6212 134.25 22.6197C134.293 22.619 134.335 22.6182 134.378 22.6182H148.67C148.708 22.6182 148.745 22.6173 148.783 22.6165C148.915 22.6134 149.044 22.6104 149.162 22.6464C149.226 23.0307 149.228 26.314 149.162 26.6837C149.113 26.7 149.061 26.7112 149.009 26.7171C148.894 26.722 148.777 26.7217 148.661 26.7215L148.584 26.7213H134.253C134.143 26.7213 134.036 26.7245 133.921 26.728C133.858 26.7298 133.792 26.7318 133.723 26.7333C133.719 26.783 133.715 26.83 133.711 26.8752C133.702 26.9638 133.694 27.0453 133.694 27.1269V29.4784V35.3341C133.694 35.4283 133.692 35.5222 133.69 35.62V35.6202V35.6203V35.6205V35.6206C133.688 35.6834 133.687 35.7478 133.686 35.815C133.615 35.8397 133.542 35.8569 133.468 35.8663H129.042C128.991 35.8605 128.941 35.8511 128.891 35.8381C128.872 35.7621 128.857 35.6849 128.847 35.6071C128.842 35.5321 128.843 35.4564 128.845 35.3805V35.3803V35.3801V35.3799V35.3797V35.3796C128.846 35.3552 128.846 35.3308 128.846 35.3065L128.847 35.2648V12.6106C128.835 12.4414 128.84 12.2715 128.862 12.1032C128.88 12.0796 128.9 12.0576 128.922 12.0373C128.935 12.0304 128.948 12.0269 128.962 12.0271L152.401 12.0142C152.514 12.0142 152.627 12.0185 152.741 12.0245C152.768 12.0301 152.794 12.0396 152.818 12.0527C152.828 12.0625 152.837 12.073 152.846 12.0844C152.854 12.0955 152.859 12.1084 152.861 12.122C152.866 13.3902 152.87 14.6581 152.872 15.9257C152.871 15.9513 152.867 15.9765 152.863 16.0066C152.859 16.043 152.853 16.0865 152.848 16.1464ZM80.9945 48.7105C80.9477 49.1204 80.9528 67.3676 81.0004 67.7219C81.3596 67.7715 83.7128 67.7946 84.5894 67.7544C84.6596 67.7484 84.7295 67.7387 84.7987 67.7253C84.8506 67.592 84.8472 67.4643 84.8438 67.3394L84.8438 67.3389C84.8433 67.3199 84.8428 67.3009 84.8424 67.282L84.8422 67.2639L84.8421 67.2478V61.6908C84.8427 61.5819 84.8482 61.472 84.8531 61.3731L84.8532 61.3707C84.8551 61.333 84.8569 61.2968 84.8583 61.2629C84.8756 61.2486 84.8877 61.2372 84.8967 61.2288L84.8968 61.2287C84.9053 61.2206 84.911 61.2153 84.9159 61.2124L84.9174 61.2115L84.9197 61.2106C84.9211 61.2101 84.9224 61.2099 84.9238 61.2099C84.9515 61.2015 84.9801 61.1966 85.0089 61.1953H85.2217L92.1153 61.2039C92.1295 61.2039 92.1437 61.2065 92.157 61.2116C92.1717 61.2205 92.186 61.2299 92.1999 61.2399C92.2064 61.2446 92.2128 61.2495 92.2191 61.2544C92.2372 61.2788 92.2574 61.3055 92.2789 61.3339L92.2816 61.3375L92.2828 61.3391L92.2829 61.3392L92.2833 61.3398L92.2838 61.3404C92.329 61.4001 92.3797 61.4671 92.4285 61.5359C93.1354 62.5308 93.8447 63.5277 94.5561 64.5266C95.2676 65.5255 95.9768 66.5239 96.6838 67.5216C96.7859 67.6662 96.8855 67.7689 97.0923 67.7689C98.4268 67.7604 99.7595 67.7604 101.092 67.7604C101.157 67.7489 101.221 67.7299 101.281 67.7039C100.35 66.3744 99.4241 65.0569 98.5029 63.7454C97.7982 62.7423 97.096 61.7426 96.3953 60.7435C96.4055 60.7285 96.4124 60.7166 96.4178 60.7074C96.4209 60.7021 96.4235 60.6976 96.4258 60.694C96.4296 60.6883 96.4329 60.6847 96.437 60.6828C96.4629 60.671 96.4888 60.659 96.5147 60.6471C96.6036 60.606 96.6926 60.5649 96.7842 60.5305C97.7783 60.1531 98.6795 59.6225 99.4174 58.8473C100.825 57.3686 101.341 55.6161 100.895 53.6154C100.403 51.4103 99.0472 49.9453 96.957 49.1538C95.9766 48.7815 94.9502 48.666 93.9085 48.666H81.5289C81.4957 48.666 81.4625 48.6651 81.4293 48.6641H81.4292C81.363 48.6622 81.2968 48.6603 81.2311 48.666C81.1515 48.6765 81.0725 48.6913 80.9945 48.7105ZM85.06 57.9075L85.0593 57.9074L85.0585 57.9074C85.0054 57.9054 84.9508 57.9034 84.894 57.9017C84.8319 57.4508 84.8387 52.3447 84.9025 51.9862C84.981 51.9743 85.0599 51.9666 85.1391 51.9631H93.3476C93.887 51.9631 94.4231 52.0477 94.9366 52.2138C95.0446 52.2489 95.1527 52.284 95.2566 52.3285C96.4063 52.8154 97.0114 53.7609 96.9851 54.9658C96.9846 55.1794 96.9644 55.3925 96.9246 55.6024C96.8516 55.9817 96.6934 56.3393 96.4621 56.6479C96.2309 56.9565 95.9327 57.2079 95.5902 57.3831C95.0742 57.6556 94.5083 57.8192 93.9272 57.8641C93.5468 57.8983 93.1629 57.9154 92.7808 57.9154H85.3766C85.2731 57.9154 85.1697 57.9115 85.06 57.9075ZM122.544 56.3152C122.596 56.7482 122.595 59.1579 122.544 59.5447C122.521 59.5479 122.497 59.5519 122.473 59.556C122.42 59.5648 122.365 59.574 122.309 59.5764C122.224 59.5804 122.139 59.579 122.054 59.5777H122.054C122.011 59.577 121.969 59.5764 121.927 59.5764H109.966C109.945 59.6662 109.93 59.7574 109.921 59.8493V64.1664C109.921 64.224 109.928 64.2789 109.936 64.3381L109.938 64.3533C109.941 64.3773 109.945 64.4022 109.947 64.4283C110.25 64.4731 110.545 64.4675 110.837 64.4619H110.837C110.969 64.4594 111.099 64.4569 111.23 64.4591C111.51 64.4636 111.795 64.4621 112.08 64.4606L112.264 64.4597L112.441 64.4591L112.507 64.4591H122.634H123.911C124.016 64.4591 124.122 64.4584 124.227 64.4578H124.228H124.228H124.228H124.229H124.229C124.548 64.4559 124.867 64.4539 125.202 64.4693C125.248 64.677 125.244 64.8749 125.24 65.0684C125.239 65.1437 125.237 65.2183 125.238 65.2925C125.242 65.4687 125.241 65.6494 125.24 65.8304V65.8306V65.8308V65.831V65.8312V65.8313V65.8315V65.8317V65.8319V65.8321V65.8323C125.239 65.9231 125.238 66.0141 125.238 66.1046C125.238 66.1951 125.239 66.2855 125.24 66.3758C125.241 66.5563 125.242 66.7365 125.238 66.9167C125.237 66.9945 125.239 67.0718 125.241 67.1491V67.1491C125.245 67.3403 125.25 67.5307 125.203 67.7245C125.144 67.7394 125.083 67.7497 125.022 67.7553H106.176C106.129 67.7484 106.083 67.7346 106.04 67.7142C106.024 67.6621 106.013 67.6085 106.008 67.5542V48.7285C106.091 48.7012 106.177 48.6803 106.263 48.666C106.339 48.6592 106.414 48.6615 106.49 48.6638H106.49L106.533 48.665C106.557 48.6656 106.58 48.666 106.604 48.666H124.64C124.66 48.666 124.679 48.6657 124.699 48.6652C124.72 48.6647 124.74 48.664 124.761 48.6633L124.762 48.6633C124.905 48.6584 125.051 48.6534 125.201 48.708C125.217 48.775 125.228 48.8431 125.235 48.9116C125.27 49.6972 125.246 51.5318 125.194 51.8801C125.183 51.8817 125.172 51.8834 125.16 51.8853L125.126 51.891C125.073 51.9 125.017 51.9094 124.962 51.9118C124.867 51.9152 124.773 51.914 124.679 51.9129H124.679H124.679H124.679H124.679H124.678H124.678H124.678L124.677 51.9129L124.61 51.9121C124.585 51.9119 124.561 51.9118 124.536 51.9118H110.494C110.389 51.9118 110.287 51.914 110.18 51.9163L110.095 51.9182C110.055 51.919 110.015 51.9197 109.973 51.9203C109.948 51.9913 109.931 52.0647 109.921 52.1394C109.918 53.4515 109.918 54.7636 109.921 56.0756C109.926 56.1387 109.935 56.2013 109.949 56.2631C110.029 56.2824 110.11 56.2967 110.192 56.3058C110.276 56.311 110.362 56.3093 110.447 56.3075H110.447L110.503 56.3065L110.535 56.3061L110.574 56.3058H122.017C122.129 56.3058 122.24 56.3085 122.358 56.3112L122.42 56.3127C122.461 56.3136 122.502 56.3145 122.544 56.3152ZM134.037 55.3534C134.046 55.2882 134.06 55.2239 134.079 55.1609C134.133 55.195 134.183 55.2265 134.232 55.2567L134.233 55.2571C134.325 55.3144 134.41 55.3667 134.491 55.4227L149.208 65.5176C150.355 66.3054 151.502 67.0915 152.651 67.8759C152.668 67.8872 152.684 67.8999 152.7 67.9128C152.771 67.9685 152.845 68.0273 152.972 67.9863V48.9296C152.967 48.8534 152.957 48.7777 152.942 48.7028C152.846 48.6844 152.748 48.6724 152.65 48.6669H149.416C149.313 48.675 149.212 48.6896 149.111 48.7105C149.104 48.8971 149.104 49.0682 149.104 49.2393V60.9515V61.3365C149.104 61.3458 149.104 61.3553 149.104 61.365C149.105 61.4224 149.106 61.4835 149.026 61.5077L149.021 61.5063L149.013 61.5043C149.004 61.5022 148.995 61.4999 148.986 61.4966L148.978 61.4937C148.974 61.4921 148.97 61.4906 148.966 61.4889C148.96 61.486 148.954 61.4828 148.948 61.4794C148.936 61.4735 148.924 61.4658 148.911 61.4581L148.875 61.4349L148.84 61.4101L130.522 48.583L130.417 48.5103L130.383 48.4855L130.371 48.4775L130.365 48.4735L130.357 48.4683L130.353 48.4656L130.347 48.4624L130.273 48.4213C130.26 48.4143 130.247 48.4097 130.233 48.4076C130.219 48.4098 130.206 48.4141 130.194 48.4204C130.189 48.4273 130.184 48.4342 130.179 48.4411C130.167 48.4565 130.155 48.4718 130.155 48.4872V67.5944C130.163 67.6416 130.177 67.6876 130.197 67.7313C130.263 67.7455 130.33 67.755 130.397 67.7595H133.801C133.869 67.753 133.936 67.7401 134.002 67.721C134.04 67.5481 134.052 67.3704 134.037 67.1939V55.7385L134.037 55.714L134.037 55.6741L134.036 55.6101V55.6093C134.035 55.524 134.034 55.4387 134.037 55.3534ZM186.104 35.8363C186.085 35.7938 186.071 35.7489 186.063 35.7028V12.2332C186.066 12.1854 186.072 12.1379 186.083 12.0912C186.098 12.074 186.114 12.0583 186.132 12.0441C186.144 12.0367 186.158 12.0326 186.173 12.0321C187.661 12.0264 189.15 12.0216 190.638 12.0176C190.686 12.0176 190.735 12.023 190.79 12.0291L190.837 12.0342L190.867 12.0373C190.886 12.1182 190.899 12.2003 190.907 12.2829C190.912 12.3781 190.91 12.473 190.909 12.5679L190.908 12.6322C190.907 12.6584 190.907 12.6845 190.907 12.7107V31.7075C190.991 31.7325 191.076 31.7514 191.163 31.764C191.257 31.7697 191.351 31.7678 191.446 31.7659C191.493 31.765 191.541 31.764 191.588 31.764H208.053C208.236 31.764 208.419 31.764 208.614 31.7691C208.634 31.8596 208.649 31.9514 208.657 32.0438V35.5522C208.657 35.6083 208.651 35.6626 208.644 35.7229C208.641 35.7489 208.638 35.7761 208.635 35.805L208.633 35.8244C208.551 35.8434 208.469 35.8583 208.385 35.8689C208.32 35.874 208.253 35.8723 208.187 35.8706C208.154 35.8697 208.121 35.8689 208.088 35.8689H186.603C186.568 35.869 186.532 35.8702 186.496 35.8714L186.495 35.8714C186.363 35.8757 186.231 35.88 186.104 35.8363ZM73.5538 67.7339C74.1163 67.7878 77.4661 67.7741 77.821 67.7142C77.615 67.2718 67.9334 52.3636 65.4202 48.6207C65.3842 48.5671 65.3447 48.5154 65.3029 48.4608C65.2834 48.4353 65.2635 48.4092 65.2431 48.382C65.2025 48.4083 65.1651 48.4393 65.1317 48.4744C60.9711 54.8586 56.812 61.2453 52.6543 67.6347C52.6474 67.6453 52.651 67.6628 52.6547 67.6809C52.657 67.692 52.6594 67.7033 52.6594 67.7134C52.6654 67.7257 52.6738 67.7368 52.684 67.7459C52.687 67.7474 52.6901 67.7488 52.6933 67.75L52.6987 67.7518L52.7016 67.7526C52.7092 67.7546 52.717 67.7555 52.7249 67.7553L52.7684 67.7582C52.8106 67.761 52.8526 67.7639 52.8951 67.7639L56.81 67.7553C56.8237 67.7541 56.8371 67.75 56.8491 67.7433C56.8783 67.7289 56.9067 67.7129 56.9342 67.6954C57.5164 66.7745 58.1131 65.8316 58.7148 64.8809L59.3044 63.9491H71.1589C71.9589 65.2104 72.764 66.482 73.5538 67.7339ZM65.4814 54.9573L69.0193 60.5802C68.9711 60.5851 68.9318 60.5895 68.8982 60.5933L68.8977 60.5933L68.8971 60.5934C68.8317 60.6007 68.7885 60.6056 68.7453 60.6067C67.0985 60.6478 61.8832 60.6247 61.4815 60.575C61.4602 60.4642 61.5195 60.3872 61.5776 60.3118C61.5962 60.2876 61.6147 60.2636 61.6304 60.2387C62.566 58.7624 63.5022 57.2865 64.4389 55.8113L64.5517 55.6335L64.553 55.6314C64.7131 55.3791 64.873 55.127 65.0346 54.876C65.0692 54.8219 65.1071 54.7698 65.1416 54.7222L65.1417 54.7221L65.142 54.7218C65.1592 54.698 65.1757 54.6754 65.1904 54.6544C65.2329 54.6475 65.2474 54.6475 65.2602 54.6475C65.2733 54.653 65.2845 54.6622 65.2925 54.674C65.3123 54.7036 65.3323 54.733 65.3523 54.7625L65.3527 54.763C65.3963 54.8273 65.4401 54.8917 65.4814 54.9573ZM168.663 48.3246L172.038 53.5027L172.162 53.6941C175.182 58.3279 178.185 62.9369 181.188 67.5473C181.212 67.591 181.232 67.6368 181.247 67.6842C181.243 67.6939 181.238 67.7033 181.232 67.7123C181.227 67.7213 181.221 67.7299 181.214 67.7382C181.207 67.7432 181.199 67.7469 181.191 67.749C181.186 67.7502 181.181 67.7509 181.176 67.751C179.843 67.7556 178.51 67.7587 177.176 67.7604C177.11 67.7555 177.045 67.7469 176.981 67.7347L174.61 63.9876C174.595 63.9796 174.584 63.9735 174.575 63.9687L174.574 63.9682L174.574 63.9679C174.559 63.9599 174.551 63.9557 174.543 63.9525C174.531 63.9463 174.517 63.9425 174.503 63.9414C170.661 63.9414 166.819 63.9388 162.976 63.9337C162.93 63.9337 162.884 63.9366 162.83 63.94L162.83 63.9401L162.787 63.9427L162.735 63.9456C162.338 64.5604 161.947 65.1821 161.555 65.805L161.555 65.8053L161.555 65.8056L161.554 65.8069L161.554 65.8072L161.553 65.8085L161.553 65.8088L161.552 65.8101C161.145 66.4566 160.737 67.1043 160.322 67.7467H156.11C156.055 67.6514 156.096 67.5923 156.139 67.5307C156.145 67.5215 156.152 67.5123 156.158 67.5028C156.53 66.9324 156.902 66.3602 157.275 65.7863C160.963 60.1266 164.651 54.4666 168.339 48.8064L168.394 48.7258C168.473 48.6095 168.556 48.4871 168.663 48.3246ZM172.464 60.6118C171.208 58.6154 170.006 56.7038 168.805 54.7929C168.764 54.736 168.721 54.6811 168.675 54.6287C168.406 54.9299 166.352 58.1225 165 60.338L164.992 60.3498C164.988 60.3567 164.983 60.3635 164.978 60.3705C164.939 60.4289 164.896 60.4921 164.923 60.6118H172.464ZM51.0913 36.4028V34.6914C50.6011 34.6101 49.6096 34.6238 49.3322 34.706C49.2717 35.2237 49.2871 36.1436 49.362 36.4319C49.8241 36.503 50.8028 36.4884 51.0913 36.4028ZM49.9062 46.6115C50.4067 46.3402 50.9199 46.0809 51.4458 45.8234C51.5539 45.9339 51.6149 46.063 51.6747 46.1894L51.6747 46.1896C51.6991 46.2413 51.7234 46.2925 51.7505 46.3419C51.8441 46.5122 51.9207 46.6688 52.0007 46.834C52.0477 46.931 52.1006 47.0364 52.1563 47.1472L52.1564 47.1474L52.1567 47.1479L52.1569 47.1484L52.1572 47.149L52.1575 47.1496C52.1962 47.2266 52.2362 47.3063 52.2765 47.3876C52.2159 47.4407 52.151 47.4885 52.0824 47.5305C51.7202 47.7195 51.3564 47.9057 50.9954 48.0904L50.7352 48.2236C50.5241 47.9755 50.016 46.988 49.9062 46.6115ZM48.3549 44.5906C48.2942 44.7291 48.2329 44.869 48.168 45.0096C48.6403 45.2988 49.2514 45.5624 49.5348 45.5975C49.6638 45.3095 49.7971 45.0163 49.9314 44.721L50.0386 44.4851C50.0579 44.4345 50.073 44.3824 50.0837 44.3293C49.6727 44.0705 49.2286 43.869 48.7637 43.7303C48.6113 44.0059 48.4845 44.2951 48.3549 44.5906ZM49.5659 50.4211C49.7029 50.0283 49.8417 49.6792 50.0034 49.3087C50.0677 49.3325 50.1295 49.3552 50.1896 49.3773L50.191 49.3778C50.3245 49.4268 50.4495 49.4726 50.5736 49.5209C50.6918 49.5669 50.7991 49.611 50.9084 49.656L50.9086 49.6561L50.9636 49.6787C51.0031 49.6949 51.0431 49.7113 51.0842 49.728C51.0726 49.8908 51.0158 50.0248 50.9606 50.1546L50.9606 50.1547C50.9387 50.2063 50.9171 50.2572 50.8987 50.309C50.85 50.4463 50.7964 50.5709 50.7395 50.7034L50.7133 50.7645L50.6825 50.837C50.3999 50.7745 50.1434 50.6647 49.8819 50.5527C49.778 50.5082 49.6733 50.4634 49.5659 50.4211ZM45.547 46.265C45.5678 45.9096 45.5678 45.5533 45.547 45.1979C45.4513 45.174 45.3535 45.1591 45.2551 45.1534C45.167 45.1561 45.0786 45.1531 44.9904 45.15C44.7999 45.1435 44.6105 45.137 44.4278 45.1885C44.3585 45.5527 44.3629 45.9273 44.4406 46.2898C44.8079 46.3486 45.1827 46.3402 45.547 46.265ZM51.2041 45.0045C51.1585 44.8115 51.1585 44.6104 51.2041 44.4174C51.5973 44.349 52.3675 44.3533 52.6875 44.4243C52.7272 44.6058 52.7309 44.7933 52.6986 44.9762C52.5274 45.0574 52.3489 45.0467 52.1713 45.0361C52.0999 45.0318 52.0287 45.0276 51.9582 45.0293C51.9121 45.0304 51.8658 45.0322 51.8193 45.034C51.6174 45.0418 51.4116 45.0497 51.2041 45.0045ZM57.7983 49.5449L58.6639 49.8872C58.8113 49.5965 58.9338 49.2936 59.0298 48.9818C58.7426 48.8186 58.4311 48.703 58.1073 48.6396C58.0748 48.7267 58.0394 48.8107 58.0044 48.8938C57.9161 49.1031 57.83 49.3073 57.7983 49.5449Z" fill="white"/>
</svg>
