<svg width="207" height="77" viewBox="0 0 207 77" fill="none" xmlns="http://www.w3.org/2000/svg">
<path fill-rule="evenodd" clip-rule="evenodd" d="M83.5267 0.0403498C83.5024 0.0625991 83.0033 0.112314 82.4178 0.150958C81.8323 0.189601 80.9221 0.268163 80.3951 0.325436C79.8682 0.38271 77.8562 0.569538 75.924 0.740506C73.9918 0.911581 64.7461 1.74737 55.378 2.59795C28.5989 5.0294 10.2164 6.63689 5.34374 6.97339C1.0095 7.27264 0.79882 7.2968 0.641159 7.51248C0.563553 7.61862 0.5 7.75787 0.5 7.82195C0.5 7.88593 1.23274 9.03693 2.12835 10.3798L3.7567 12.8211L5.93415 13.7551C7.13178 14.2687 8.35112 14.8042 8.64387 14.9451C8.93663 15.086 12.8888 16.8414 17.4265 18.8461C21.9642 20.8508 25.6926 22.5041 25.7118 22.5204C25.731 22.5366 25.3551 23.7259 24.8765 25.1632L24.0062 27.7766L25.1148 29.4042C25.7246 30.2995 26.2656 31.1037 26.3169 31.1916C26.4346 31.3926 25.3374 30.4206 23.5477 28.7381C21.8271 27.1206 21.1128 26.5075 20.9492 26.5075C20.7829 26.5075 20.7893 26.491 18.9711 31.5642C18.1106 33.9647 15.418 41.4619 12.9874 48.2245C10.5568 54.9871 8.00386 62.101 7.31435 64.0332C6.62483 65.9654 5.7437 68.3719 5.3562 69.3811C4.96881 70.3902 4.65178 71.3146 4.65178 71.4351C4.65178 71.5557 5.35843 72.7261 6.222 74.0359C8.02473 76.7702 7.94243 76.7119 9.13996 76.1073C9.49722 75.927 11.1366 75.2377 12.783 74.5755C24.6883 69.7877 38.6505 65.1833 52.1843 61.582C55.3428 60.7415 62.064 59.08 62.1119 59.1279C62.1304 59.1464 61.4657 61.0348 60.6347 63.3244L59.124 67.4873L50.9985 70.1711C46.5295 71.6473 42.8862 72.8681 42.9021 72.8841C42.9348 72.9166 46.2206 72.6362 99.231 68.076C119.954 66.2933 136.941 64.7981 136.979 64.7533C137.018 64.7086 137.782 62.2048 138.678 59.1895C139.574 56.1741 140.348 53.691 140.398 53.6715C140.602 53.5922 140.464 53.4256 140.01 53.2054C139.517 52.9654 139.45 52.833 139.644 52.4719C139.746 52.2812 139.831 52.2681 140.575 52.3295C141.026 52.3665 142.33 52.5839 143.474 52.8124C144.69 53.0555 145.859 53.2279 146.29 53.2279C147.882 53.2279 159.905 55.0191 167.05 56.3207C174.316 57.6444 185.336 60.0815 190.682 61.5472C192.853 62.1424 192.842 62.1411 192.956 61.8361C193.007 61.6978 193.104 60.7943 193.17 59.8282C193.237 58.8621 193.631 54.7662 194.047 50.7262L194.803 43.3808L196.878 41.2941L198.953 39.2076L200.901 32.8309C203.168 25.4086 204.871 19.8541 205.776 16.9265C206.129 15.7847 206.44 14.6967 206.466 14.5084C206.508 14.2104 206.318 13.8708 204.986 11.8672L203.458 9.56804L202.553 9.62372C202.056 9.65438 200.307 9.80192 198.668 9.95171C197.028 10.1015 192.166 10.5359 187.862 10.9172C183.559 11.2984 178.768 11.7285 177.217 11.8728C175.665 12.0172 171.976 12.352 169.02 12.6167C166.063 12.8815 162.877 13.1691 161.94 13.2559C158.226 13.5997 156.624 13.7457 151.454 14.2103C96.5501 19.1452 81.0353 20.5296 81.002 20.4965C80.9802 20.4746 82.0751 17.7581 83.4352 14.46C84.7953 11.1618 86.2393 7.64885 86.6441 6.65349L87.38 4.84374L85.7626 2.42187C84.3204 0.262201 84.1142 0 83.8581 0C83.7003 0 83.5511 0.018207 83.5267 0.0403498ZM75.9605 7.15916C75.2326 8.89311 71.5436 17.8759 70.0617 21.5234C69.1891 23.6711 68.4643 25.4174 68.451 25.4041C68.4377 25.3909 68.3054 23.7095 68.1569 21.6679C68.0082 19.6262 67.8676 17.9366 67.8442 17.9132C67.8209 17.8899 66.5154 18.0135 64.9433 18.188C63.371 18.3626 62.0771 18.4973 62.0678 18.4877C62.0585 18.478 62.9253 15.9551 63.994 12.8812L65.937 7.29223L70.6112 6.85256C73.1819 6.6108 75.5101 6.40726 75.7849 6.40013L76.2846 6.38735L75.9605 7.15916ZM64.02 7.63821C63.8479 8.18092 60.2918 18.582 60.2681 18.6118C60.2526 18.6312 56.3197 19.051 51.5281 19.5448C46.7366 20.0386 42.7607 20.4626 42.6928 20.4872C42.625 20.5118 42.3661 21.1481 42.1175 21.9012L41.6656 23.2705L48.0286 29.6027L54.3915 35.9348L53.0987 39.711C52.3877 41.788 51.1964 45.3074 50.4514 47.532L49.0971 51.5768L47.0212 52.1374C38.0089 54.5712 28.9983 57.3805 20.4605 60.4185C17.4862 61.4768 14.5222 62.5855 13.6597 62.9624C13.2635 63.1356 13.2494 63.135 13.3215 62.9494C13.3629 62.8429 15.3364 57.3664 17.7073 50.7795C23.6141 34.3679 23.5298 34.5982 23.6308 34.5982C23.7089 34.5982 30.6908 40.7257 31.5183 41.5203L31.824 41.8139L31.5859 42.5441C31.1878 43.7645 30.4249 46.4611 30.4661 46.5022C30.4872 46.5234 30.6639 46.4868 30.8586 46.4209C31.0533 46.3549 33.5296 45.7964 36.3616 45.1794C39.1936 44.5625 41.6187 44.0168 41.7506 43.9667C41.9261 43.9 42.0705 43.6522 42.2889 43.0427C42.453 42.5846 42.7481 41.8047 42.9447 41.3097L43.3021 40.4096L42.8462 39.9649C42.2756 39.4084 31.2483 29.2337 30.2944 28.3837L29.5925 27.7583L30.4184 25.3497C30.8726 24.0251 31.7039 21.626 32.2657 20.0184C32.8274 18.4108 33.2515 17.0616 33.2079 17.0202C33.12 16.9365 25.1555 13.3777 22.7417 12.3436C20.9556 11.5784 20.7954 11.4995 20.8717 11.4231C20.9181 11.3767 62.9975 7.49663 63.8271 7.46235C64.0206 7.45436 64.0653 7.49503 64.02 7.63821ZM196.166 15.8485C196.166 15.8997 196.091 16.1513 196 16.4074C195.816 16.9253 191.951 29.4563 190.997 32.6287C190.663 33.7412 190.311 34.728 190.217 34.8217C190.122 34.9154 189.23 35.484 188.235 36.0853C187.24 36.6866 186.415 37.187 186.403 37.1972C186.39 37.2074 186.061 40.1838 185.671 43.8113C185.281 47.4389 184.951 50.4195 184.938 50.435C184.925 50.4504 183.907 50.2253 182.675 49.9347C181.444 49.644 180.312 49.3897 180.161 49.3694C180.01 49.3492 179.863 49.3092 179.834 49.2804C179.79 49.2364 180.771 39.8377 181.031 37.8169C181.078 37.45 181.094 37.1267 181.065 37.0983C181.037 37.0699 180.788 37.0466 180.512 37.0466H180.011L178.118 42.6622C177.078 45.7508 176.194 48.3145 176.155 48.3594C176.117 48.4043 175.034 48.22 173.75 47.95C172.466 47.6799 171.258 47.4461 171.066 47.4305C170.874 47.4148 170.686 47.3711 170.648 47.3333C170.591 47.2765 174.72 34.2065 177.534 25.5356L178.247 23.3394L177.461 21.2241C177.029 20.0608 176.554 18.7813 176.405 18.3809C176.257 17.9805 176.151 17.6391 176.171 17.6223C176.197 17.5992 195.002 15.8398 195.98 15.769C196.082 15.7615 196.166 15.7973 196.166 15.8485ZM175.926 20.5412C176.46 22.1195 176.897 23.4609 176.897 23.522C176.897 23.5832 176.705 23.6332 176.47 23.6332C176.235 23.6332 174.762 23.7511 173.197 23.8951C171.631 24.0392 170.165 24.1709 169.938 24.1878L169.526 24.2187L168.743 26.5075C168.312 27.7664 167.959 28.8482 167.958 28.9116C167.956 28.9927 169.01 29.0168 171.516 28.993C173.692 28.9723 175.101 28.9986 175.14 29.0604C175.205 29.166 174.909 30.3143 174.768 30.4996C174.724 30.5582 174.661 30.7019 174.629 30.819C174.251 32.1856 173.005 36.0627 172.916 36.1512C172.832 36.2348 171.983 36.2151 169.871 36.0808C168.261 35.9783 166.638 35.8819 166.264 35.8667L165.584 35.8391L165.013 37.4747C164.699 38.3744 164.442 39.149 164.442 39.1963C164.442 39.2436 164.622 39.2808 164.841 39.2792C165.443 39.2748 171.614 40.045 171.718 40.1375C171.767 40.1817 171.495 41.1689 171.114 42.3315C170.732 43.4941 170.238 45.0202 170.015 45.7228C169.793 46.4254 169.597 47.0206 169.581 47.0455C169.564 47.0704 169.251 47.034 168.886 46.9647C163.73 45.9872 158.115 45.0308 157.533 45.0308C157.3 45.0308 157.081 44.9854 157.047 44.9299C157.012 44.8745 157.868 42.2276 158.947 39.0482C160.027 35.8688 162.023 29.986 163.383 25.9752C164.744 21.9645 165.888 18.647 165.927 18.603C165.965 18.559 167.982 18.3371 170.409 18.1099C172.836 17.8827 174.851 17.6912 174.888 17.6842C174.925 17.6773 175.392 18.963 175.926 20.5412ZM164.605 18.9225C164.565 19.0836 164.419 19.5027 164.279 19.854C164.14 20.2053 162.111 25.8989 159.77 32.5064C157.429 39.114 155.488 44.5457 155.457 44.5771C155.425 44.6084 154.117 44.4593 152.549 44.2456C150.981 44.032 149.631 43.8578 149.55 43.8585C149.433 43.8596 149.416 43.7234 149.469 43.1945C149.531 42.5784 149.722 40.414 150.123 35.7692C150.212 34.7445 150.315 33.6188 150.352 33.2675C150.389 32.9162 150.395 32.6527 150.364 32.682C150.334 32.7112 148.958 35.0825 147.307 37.9515C145.655 40.8205 144.295 43.1767 144.284 43.1873C144.274 43.1981 143.14 43.0898 141.765 42.9467C140.39 42.8036 139.169 42.709 139.051 42.7365C138.446 42.878 138.463 42.8025 140.11 38.0928C140.977 35.6145 142.449 31.3832 143.381 28.6899C145.585 22.3228 146.259 20.3944 146.297 20.3501C146.335 20.3062 150.431 19.9201 150.472 19.9565C150.488 19.9708 150.256 20.672 149.957 21.5151C149.133 23.8397 147.622 28.237 147.623 28.3078C147.623 28.3835 147.86 27.9987 150.664 23.3676C151.869 21.3772 152.863 19.7415 152.873 19.7328C152.899 19.71 156.512 19.375 156.731 19.375C156.889 19.375 156.904 19.4506 156.845 19.9339C156.572 22.1571 156.342 24.3336 156.247 25.6026C156.185 26.4223 156.114 27.2128 156.088 27.3592C156.054 27.5532 156.085 27.5244 156.206 27.2527C156.296 27.0478 157.116 25.1795 158.026 23.1009C158.937 21.0224 159.735 19.2652 159.8 19.1962C159.892 19.0985 162.776 18.7575 164.48 18.6431C164.644 18.632 164.666 18.6798 164.605 18.9225ZM145.067 20.542C145.067 20.5985 144.967 20.8978 144.845 21.2074C144.723 21.517 142.994 26.3931 141.003 32.0432C139.012 37.6934 137.343 42.3587 137.293 42.4106C137.241 42.4655 135.715 42.4083 133.656 42.2746C129.04 41.9746 126.256 41.8463 125.825 41.9137C125.635 41.9434 125.479 41.9417 125.479 41.9099C125.479 41.7953 132.608 21.6852 132.671 21.622C132.728 21.5649 143.838 20.487 144.721 20.4528C144.911 20.4455 145.067 20.4856 145.067 20.542ZM131.011 22.5953C130.837 23.0784 129.826 25.9464 128.766 28.9688L126.839 34.464L122.992 34.5418C120.876 34.5846 119.142 34.6268 119.138 34.6355C119.134 34.6443 118.487 36.2323 117.7 38.1644L116.269 41.6775L114.354 41.7461C113.3 41.7838 112.091 41.8458 111.667 41.8837C111.242 41.9215 110.895 41.9327 110.895 41.9084C110.895 41.8841 110.998 41.6306 111.125 41.345C111.252 41.0595 112.95 36.8084 114.898 31.8982C116.847 26.9881 118.47 22.9425 118.504 22.9081C118.567 22.8451 130.04 21.7522 130.879 21.7292L131.329 21.717L131.011 22.5953ZM139.02 22.7127C138.709 23.2483 138.037 24.429 137.527 25.3365L136.6 26.9866L135.669 27.0504C135.156 27.0855 134.719 27.1334 134.697 27.1569C134.628 27.2295 132.378 34.2941 132.416 34.319C132.436 34.3319 133.077 34.3236 133.841 34.3005L135.23 34.2585L135.463 33.7509C135.856 32.894 139.686 21.8323 139.612 21.7647C139.597 21.7505 139.33 22.1771 139.02 22.7127ZM116.268 23.7208C116.166 23.9947 115.999 24.4103 115.898 24.6445C115.796 24.8787 115.077 26.7949 114.301 28.9028C113.524 31.0106 112.849 32.7856 112.801 32.8474C112.753 32.9091 112.156 33.3109 111.476 33.7403C110.795 34.1698 110.214 34.5829 110.185 34.6586C110.156 34.7343 110.183 35.7696 110.245 36.9594C110.308 38.1491 110.367 39.7403 110.378 40.4953L110.398 41.868L110.087 41.8957C109.917 41.9109 108.967 41.9554 107.978 41.9947L106.179 42.0661L106.236 38.6447C106.286 35.6625 106.273 35.2309 106.137 35.2833C106.051 35.3163 105.799 35.3433 105.578 35.3433H105.175L103.971 38.7606C103.013 41.48 102.722 42.1956 102.546 42.265C102.425 42.313 101.559 42.4069 100.622 42.4738C99.6849 42.5406 98.5914 42.6445 98.1916 42.7048C97.7918 42.7649 97.4418 42.7913 97.4138 42.7632C97.3628 42.7123 97.9449 41.0804 100.801 33.2675C102.538 28.513 102.49 28.7838 102.116 25.946C102.009 25.1394 101.953 24.4486 101.991 24.4108C102.108 24.2937 116.375 23.0235 116.415 23.1266C116.436 23.1796 116.37 23.447 116.268 23.7208ZM185.054 23.1959L184.641 23.2606L183.701 26.0018L182.76 28.7431H183.621H184.481L185.566 27.953L186.65 27.163L187.132 25.8505C187.396 25.1287 187.739 24.2147 187.893 23.8195L188.172 23.1009L186.82 23.116C186.076 23.1243 185.281 23.1602 185.054 23.1959ZM100.615 25.0437C100.803 26.749 101.002 29.5161 100.941 29.5772C100.902 29.6161 99.2838 29.7677 97.3444 29.9141L93.8182 30.1802L93.4138 31.2448C92.8019 32.856 92.8135 32.7236 93.2908 32.6474C94.4156 32.4679 99.9682 31.8333 100.014 31.879C100.043 31.9078 99.9382 32.28 99.7815 32.7059C99.6248 33.1318 99.2749 34.1031 99.0038 34.8643C98.7328 35.6255 98.4963 36.2669 98.4783 36.2895C98.4603 36.3123 96.8545 36.4911 94.9101 36.6868C92.9657 36.8825 91.3384 37.0794 91.2941 37.1245C91.2019 37.2179 90.5617 38.9253 90.5617 39.0775C90.5617 39.135 90.7998 39.1519 91.1206 39.1174C91.9233 39.0309 97.6347 38.6549 97.6662 38.6865C97.7033 38.7235 97.2555 40.0571 97.1624 40.1871C97.1204 40.2456 96.8849 40.8694 96.6391 41.5732L96.1921 42.8527L93.0841 43.1998C91.3748 43.3907 88.7306 43.7137 87.2083 43.9174C84.7453 44.2472 84.1596 44.3438 83.2428 44.5705C83.1011 44.6057 83.0033 44.5809 83.0033 44.51C83.0033 44.3602 89.8238 25.6323 89.9184 25.5226C89.9736 25.4583 99.2046 24.5439 100.268 24.4973C100.535 24.4856 100.557 24.5198 100.615 25.0437ZM87.6873 25.7357C87.6873 25.8303 87.2988 26.8945 87.1531 27.1995C87.0971 27.3166 86.2841 29.5402 85.3464 32.1411C84.4087 34.7418 83.6297 36.8806 83.6152 36.8938C83.6007 36.9071 82.6307 37.0448 81.4597 37.1998C80.2887 37.3549 78.9234 37.5514 78.4257 37.6365C77.928 37.7216 77.3502 37.7913 77.1415 37.7915L76.7621 37.7918L75.1235 41.8956C74.2222 44.1526 73.4348 46.0363 73.3737 46.0817C73.3126 46.1269 72.2805 46.3474 71.0802 46.5716C69.88 46.7958 68.6961 47.0535 68.4493 47.1443C68.2025 47.2352 67.973 47.2818 67.9392 47.2481C67.8908 47.1998 75.0719 27.0033 75.1963 26.8377C75.2255 26.7987 86.7293 25.6956 87.3946 25.668C87.5557 25.6613 87.6874 25.6917 87.6873 25.7357ZM72.7804 27.9181C72.6061 28.4011 70.996 32.988 69.2026 38.1112C67.4091 43.2344 65.8883 47.4782 65.823 47.5418C65.7577 47.6056 64.7222 47.8635 63.5219 48.1151C62.3216 48.3666 61.2004 48.638 61.0304 48.7179C60.7105 48.8684 60.4347 48.9079 60.4347 48.8032C60.4347 48.7701 60.7498 47.848 61.135 46.7539C62.7505 42.1652 63.1158 41.0761 63.0582 41.0186C63.0248 40.9852 62.0925 42.7994 60.9863 45.0502L58.9752 49.1425L55.0475 50.1284C52.8873 50.6707 51.0129 51.1402 50.8823 51.1719L50.6448 51.2293L50.9098 50.4987C51.0557 50.0969 52.8464 44.9625 54.8893 39.0888C56.9322 33.2152 58.631 28.3821 58.6645 28.3487C58.7218 28.2913 63.7534 27.7966 63.8181 27.8419C63.8347 27.8535 63.6767 28.3365 63.4668 28.9151C62.413 31.8219 59.4774 40.3832 59.52 40.4257C59.5468 40.4525 59.7277 40.4242 59.9219 40.3626C60.116 40.3011 60.9936 40.1256 61.8718 39.9725C62.7501 39.8194 63.5012 39.6613 63.541 39.6212C63.581 39.5812 64.5788 36.8419 65.7585 33.534C66.9382 30.2262 67.9181 27.5051 67.936 27.4872C67.9855 27.4376 71.9072 27.0678 72.5412 27.0529L73.0975 27.0398L72.7804 27.9181ZM122.849 27.9899C122.31 28.0236 121.826 28.099 121.774 28.1576C121.694 28.246 121.082 29.7692 119.507 33.7898C119.395 34.0772 119.318 34.328 119.338 34.3473C119.357 34.3667 119.58 34.2275 119.833 34.0379C120.086 33.8484 121.158 33.0945 122.215 32.3626L124.138 31.0319L124.47 30.2335C124.653 29.7943 124.883 29.2555 124.981 29.0358C125.079 28.8163 125.229 28.469 125.314 28.264L125.468 27.8914L124.649 27.9101C124.198 27.9204 123.388 27.9563 122.849 27.9899ZM108.8 28.9872L107.397 29.0902L107.017 30.1488C106.808 30.7312 106.637 31.2503 106.637 31.3027C106.637 31.3562 107.013 31.3688 107.497 31.3315C108.242 31.2741 108.461 31.2065 109.129 30.8291C109.827 30.4353 109.939 30.324 110.292 29.6782C110.506 29.2849 110.682 28.9377 110.682 28.9064C110.682 28.8751 110.574 28.8573 110.442 28.8669C110.311 28.8764 109.572 28.9306 108.8 28.9872ZM80.2544 31.516C79.7085 31.5608 79.2424 31.6169 79.2185 31.6408C79.1197 31.7396 77.1504 37.0843 77.196 37.1299C77.2233 37.1571 77.547 36.8944 77.9155 36.5459C78.2839 36.1974 79.0136 35.5418 79.5371 35.089C80.5492 34.2136 80.475 34.3313 81.4097 32.1231C81.7127 31.4069 81.713 31.4045 81.4802 31.4197C81.3519 31.428 80.8002 31.4713 80.2544 31.516ZM135.226 49.2891L135.673 50.3004L135.253 51.4714C135.022 52.1155 134.376 53.9359 133.817 55.5167C133.259 57.0976 132.771 58.4464 132.733 58.5141C132.696 58.5818 132.28 58.9912 131.81 59.4239L130.954 60.2105L125.77 60.6776C122.919 60.9346 120.558 61.1166 120.523 61.0823C120.471 61.0295 124.654 49.334 124.765 49.2223C124.812 49.176 134.409 48.2426 134.627 48.2633C134.71 48.2712 134.98 48.7328 135.226 49.2891ZM131.799 50.27L130.746 51.6843L128.992 51.844L127.238 52.0037L126.468 54.0264C126.045 55.1388 125.582 56.3622 125.44 56.745L125.181 57.4409L127.539 57.1819C128.836 57.0395 129.928 56.876 129.965 56.8187C130.025 56.726 131.118 53.8197 132.455 50.1994C132.713 49.4997 132.908 48.9112 132.888 48.8915C132.869 48.8718 132.378 49.4921 131.799 50.27ZM119.727 50.4335C119.718 52.2881 119.314 61.1381 119.235 61.2097C119.185 61.2541 118.474 61.347 117.655 61.4161C116.835 61.4852 116.05 61.5659 115.911 61.5955L115.657 61.6491L115.721 60.8186C115.757 60.3617 115.812 59.1256 115.843 58.0717L115.9 56.1555L115.513 57.2374C115.069 58.4779 115.225 58.3825 113.434 58.507C112.869 58.5463 112.366 58.6081 112.316 58.6444C112.149 58.7663 111.576 59.5528 110.698 60.8661C110.141 61.6993 109.759 62.1699 109.642 62.1692C109.541 62.1686 108.581 62.2459 107.509 62.3409C106.437 62.4359 105.531 62.4846 105.496 62.4492C105.461 62.4138 105.768 61.8935 106.178 61.2928C111.868 52.9676 113.508 50.5868 113.675 50.4111C113.845 50.2322 114.21 50.1698 116.243 49.9721C117.546 49.8454 118.864 49.7358 119.172 49.7283L119.731 49.7149L119.727 50.4335ZM108.553 50.8633C108.553 50.9326 104.989 60.7923 104.443 62.2355L104.277 62.6733L103.567 62.7404C102.754 62.8172 99.1718 63.1386 95.6716 63.4488C94.3542 63.5654 93.0728 63.6878 92.8239 63.7205C92.4912 63.7643 92.3715 63.7431 92.3718 63.6405C92.3724 63.501 96.4743 51.9639 96.5505 51.8877C96.6046 51.8335 100.065 51.5182 100.11 51.5633C100.13 51.5828 99.453 53.4369 98.6061 55.6835C97.7593 57.93 97.0805 59.7822 97.0977 59.7995C97.1602 59.8621 102.001 59.3964 102.077 59.3206C102.12 59.2777 102.802 57.4702 103.594 55.3038C104.386 53.1375 105.076 51.2931 105.127 51.2053C105.196 51.0883 105.574 51.0143 106.541 50.9285C108.297 50.7726 108.553 50.7643 108.553 50.8633ZM95.1389 52.0835C95.1387 52.1946 92.4586 59.7903 91.3128 62.9274L90.978 63.8441L90.3284 63.9121C89.9712 63.9494 89.5182 63.98 89.3218 63.98C88.8643 63.98 88.8694 64.1236 89.3482 64.7252C89.6022 65.0442 89.6818 65.2138 89.5868 65.233C89.5082 65.2487 88.5337 65.324 87.4212 65.4001L85.3986 65.5386L84.8663 64.9845L84.334 64.4303L81.6757 64.6784C80.2136 64.8149 79 64.9092 78.979 64.8881C78.9437 64.8528 82.9827 53.2196 83.0579 53.1399C83.0759 53.1207 85.574 52.8716 88.6093 52.5862C95.4465 51.9434 94.9644 51.9896 95.0594 51.9683C95.1033 51.9586 95.1392 52.0104 95.1389 52.0835ZM90.6261 53.9845C89.4741 55.4535 89.4633 55.4635 89.0292 55.4668C88.3391 55.4719 85.9691 55.656 85.9165 55.7085C85.8338 55.7912 83.8525 61.0322 83.8899 61.0696C83.9448 61.1246 88.6309 60.7547 88.741 60.6866C88.8347 60.6286 91.8661 52.578 91.8124 52.5296C91.7978 52.5164 91.264 53.1712 90.6261 53.9845ZM115.212 54.2542L114.386 55.4949L114.796 55.4272C115.022 55.3899 115.38 55.3589 115.593 55.3582L115.98 55.3571L116.028 54.2127C116.053 53.5833 116.066 53.0559 116.057 53.0409C116.047 53.0258 115.667 53.5718 115.212 54.2542ZM81.6137 53.361C81.6106 53.4342 81.4037 54.0689 81.1538 54.7715L80.6995 56.049L79.8554 56.1297C79.3911 56.1741 77.5503 56.332 75.7647 56.4806C73.9791 56.6292 72.4885 56.7845 72.4522 56.8257C72.3226 56.9731 71.8033 58.4577 71.8612 58.5155C71.9112 58.5655 74.4883 58.4244 76.0837 58.2842C78.1332 58.104 79.8332 58.0065 79.8922 58.0656C79.983 58.1564 77.7193 64.8284 77.5351 65.0125C77.4716 65.0759 66.0784 66.1254 65.8992 66.0844C65.8187 66.066 65.9913 65.4546 66.3878 64.3545L67.001 62.6532L70.9493 62.3306C73.1209 62.153 74.9234 61.982 74.955 61.9504C75.0505 61.855 76.2931 58.5117 76.2493 58.4679C76.227 58.4456 75.8523 58.7657 75.4169 59.1793L74.6253 59.9313L71.236 60.197C69.3719 60.343 67.8346 60.4505 67.8199 60.4357C67.8051 60.421 68.2845 59.0453 68.8852 57.3787L69.9775 54.3485L75.6122 53.8016C78.7112 53.5009 81.3306 53.2488 81.4331 53.2413C81.5356 53.234 81.6168 53.2879 81.6137 53.361Z" fill="white"/>
</svg>
