<svg width="118" height="32" viewBox="0 0 118 32" fill="none" xmlns="http://www.w3.org/2000/svg">
<path fill-rule="evenodd" clip-rule="evenodd" d="M17.5358 0.504439L27.8305 5.96216C29.4108 6.91035 30.8895 8.01657 30.9573 11.2732V13.8862H26.9105V10.3137L15.5209 4.1956L4.04673 10.3137V13.8862H0V11.2732C0.0620855 8.0335 1.52952 6.92164 3.09855 5.9791L13.5004 0.49878C14.7647 -0.1672 16.2716 -0.1672 17.5358 0.504439ZM17.5414 27.2681L26.9049 22.025V18.1192H30.9516V20.7268C30.8895 23.9834 29.4051 25.0953 27.8248 26.0377L17.5358 31.4956C16.2773 32.1672 14.7647 32.1672 13.5004 31.5011L3.09855 26.0209C1.52952 25.0783 0.0677282 23.9608 0 20.7268V18.1192H4.05237V22.025L13.5004 27.2738V23.0352C10.2043 22.262 8.04268 19.5867 8.04268 15.9972C8.04268 11.6513 11.0453 8.73333 15.5209 8.73333C19.9966 8.73333 22.9993 11.6513 22.9993 15.9972C22.9993 19.581 20.832 22.262 17.5414 23.0352V27.2681ZM15.5209 12.306C13.1222 12.306 11.8016 13.6153 11.8016 15.9972C11.8016 18.3112 13.19 19.6884 15.5209 19.6884C17.8519 19.6884 19.2404 18.3055 19.2404 15.9972C19.2404 13.6153 17.9196 12.306 15.5209 12.306ZM101.733 7.20956H96.0943L88.8475 14.637V3.54661H84.1969V26.004H88.8475V20.3826L91.2405 17.9332L97.5506 26.004H102.771L94.1415 14.97L101.733 7.20956ZM109.189 9.42734C110.069 8.54687 112.434 6.71823 116.898 6.71823H117.756L117.773 10.8778L109.189 10.9117V26.0037H104.465V7.20361V7.19233H109.189V9.42734ZM73.7443 6.71302C70.1773 6.71302 67.9367 9.02141 67.7729 9.20202V7.19276H63.049V7.1984V26.0042H67.7729V10.4945H71.2835C71.4641 10.4945 71.6392 10.5001 71.8085 10.5058C72.9881 10.5453 73.8855 10.7372 74.5514 11.0871C74.7716 11.2113 74.9747 11.3524 75.161 11.5048C76.16 12.3964 76.4253 13.9148 76.4253 16.178V26.0098H81.0759V14.7727C81.0702 10.1163 78.9369 6.71302 73.7443 6.71302ZM52.9405 7.81898C53.742 8.30437 54.4249 8.94778 55.0063 9.76616V7.18686H59.7303V25.9982H55.0063V23.2327C54.4644 24.2768 53.4766 25.2024 52.0826 25.8176C51.7722 25.9588 51.4393 26.0773 51.0893 26.1845C51.0104 26.2071 50.9313 26.2297 50.8466 26.2522L50.7788 26.2692C49.983 26.4668 49.1478 26.574 48.2899 26.574C46.924 26.574 45.6202 26.303 44.4295 25.8176C40.7721 24.3276 38.1984 20.7775 38.1984 16.6349C38.1984 11.1489 42.7194 6.69583 48.2899 6.69583C49.9662 6.69583 51.5465 7.1022 52.9405 7.81898ZM43.0466 16.6406C43.0466 20.2188 45.4283 22.7022 49.1083 22.7022C52.314 22.7022 55.1699 20.4277 55.1699 16.6406C55.1699 12.7743 52.41 10.5789 49.1083 10.5789C45.3607 10.5789 43.0466 12.8421 43.0466 16.6406Z" fill="#121212"/>
</svg>
