<svg width="120" height="30" viewBox="0 0 120 30" fill="none" xmlns="http://www.w3.org/2000/svg">
<path fill-rule="evenodd" clip-rule="evenodd" d="M0.280374 9.81357L4.76636 0.000488281L21.8692 1.56313L44.2991 2.52385L53.8318 1.40236L58.5981 8.69208L62.243 3.64535L69.8131 1.40236L83.5514 2.52385L104.579 4.2061L111.869 1.96311H115.514L119.439 5.04722L120 25.5145L116.636 28.5986L89.1589 26.0753L83.8318 26.9164L61.6822 24.9538L56.3551 28.0379L42.8972 27.7575L33.9252 28.0379L22.7103 30.0005L0 27.4771L0.280374 9.81357ZM94.7664 5.8883C93.6449 7.00979 92.9907 15.1406 92.8038 19.0659C92.7507 20.0501 92.2209 20.9713 91.9627 21.3089C91.4019 22.15 90.5047 23.8883 91.4019 24.1126C92.5234 24.393 100.374 23.5519 101.495 23.2715C102.617 22.9911 103.178 22.7107 103.178 22.15C103.178 21.7014 103.551 21.5892 103.738 21.5892C104.019 22.8042 105.252 25.2902 107.944 25.5145C111.308 25.7948 116.355 20.4677 116.636 17.664C116.785 16.1662 114.935 15.2285 113.093 14.2952C111.487 13.4815 109.887 12.6711 109.626 11.4958C109.178 9.47709 112.991 8.7855 114.953 8.69204C115.154 8.68248 115.371 8.70623 115.584 8.72963C116.266 8.80431 116.916 8.87555 116.916 7.85092C116.916 6.16868 115.794 4.76681 113.551 4.48644C111.308 4.20607 104.299 8.1313 104.299 11.2154C104.299 13.6827 108.411 15.6079 110.467 16.2621C110.935 16.3556 111.925 16.7668 112.15 17.664C112.43 18.7855 106.822 21.0285 105.701 21.3089C104.804 21.5332 104.579 20.6547 104.579 20.1874C104.579 20.0005 104.523 19.5706 104.299 19.3463C104.075 19.122 103.832 19.0659 103.738 19.0659C103.655 19.0659 103.371 19.0912 102.961 19.1276C101.179 19.2863 97.0242 19.6561 96.729 19.0659C96.2178 18.0434 96.2472 16.4091 97.5702 16.2621C100.094 15.9818 103.738 14.2995 103.738 13.4584C103.738 12.7855 102.804 12.6173 102.337 12.6173L102.097 12.6314C100.474 12.7277 97.837 12.8841 97.5702 12.6173C97.3719 12.419 97.5702 10.6547 97.8505 10.3743C98.1351 10.0897 100.096 9.60131 101.266 9.30997L101.495 9.2528C103.178 8.83224 104.636 7.907 104.86 7.00981C105.084 6.11261 104.019 5.70138 103.458 5.60792C101.028 5.23409 95.8879 4.7668 94.7664 5.8883ZM65.0466 22.1501C65.0466 22.5987 65.2335 23.0847 65.3269 23.2716C65.5447 23.562 66.0238 23.3495 66.4909 23.1423C66.7844 23.0122 67.0732 22.8841 67.2896 22.8841C67.3879 22.9216 67.514 23.0403 67.6387 23.1576C67.8696 23.3749 68.0956 23.5875 68.1307 23.2716C68.6658 18.4556 72.7755 17.4694 74.1247 17.1457L74.1249 17.1457L74.1251 17.1456C74.1699 17.1349 74.2116 17.1248 74.2501 17.1154L74.2989 17.1034C75.1961 16.8791 75.4204 18.1314 75.4204 18.7856C75.4204 21.2155 75.7008 26.0193 76.8223 25.795C78.0207 25.5553 77.9897 24.7009 77.9555 23.7572L77.9555 23.7567C77.9497 23.5967 77.9438 23.4342 77.9438 23.2716C77.9438 22.9106 78.1319 22.6289 78.3359 22.3235C78.6389 21.8698 78.9769 21.3637 78.7849 20.4679C78.5045 19.1595 78.0559 16.2623 78.5045 16.2623C78.9531 16.2623 79.626 15.795 79.9064 15.4211C80.1868 14.8604 80.1868 14.2996 79.9064 14.2996C79.626 14.2996 79.0653 14.58 79.0653 14.58C79.0653 14.58 79.3456 13.3651 79.3456 12.8978C79.3456 12.4347 78.8358 12.6514 78.3775 12.8463C78.0033 13.0053 77.6634 13.1498 77.6634 12.8978C77.6634 11.7541 76.4484 7.19684 75.7008 5.0473C75.5139 4.86039 74.6914 4.54263 72.897 4.76693C70.654 5.0473 68.1307 14.2996 68.1307 14.58C68.1307 14.6826 67.8678 14.8228 67.5344 15.0005L67.5343 15.0006C66.9569 15.3084 66.1681 15.729 66.1681 16.2623C66.1681 16.7669 66.4709 16.8679 66.6525 16.9284C66.7737 16.9688 66.841 16.9912 66.7288 17.1034C66.4484 17.3838 65.0466 21.5894 65.0466 22.1501ZM73.1772 10.3744C72.7286 10.5987 72.0557 13.2716 71.7754 14.58C71.7754 14.8604 74.0184 13.7389 74.2987 13.1781C74.5791 12.6174 73.738 10.094 73.1772 10.3744ZM81.5889 10.2697C81.3646 10.494 81.1216 14.1015 81.0282 15.8772C80.9778 16.7298 80.2627 17.1675 79.7101 17.5058C79.3541 17.7238 79.0655 17.9005 79.0655 18.1202C79.0655 18.4101 79.4809 18.5034 79.8611 18.5888C80.2162 18.6686 80.5407 18.7415 80.4674 18.9613C80.2431 19.6342 80.374 22.4192 80.4674 23.7276C80.5609 24.2884 80.916 25.2977 81.5889 24.8491C82.43 24.2884 82.9908 21.4847 82.9908 21.2043C82.9908 20.9239 83.2711 20.3632 83.2711 20.6435C83.2711 20.9239 83.8319 21.4847 83.8319 21.2043C83.8319 20.9239 84.1123 19.8024 84.3926 18.9613C84.5634 18.4489 85.7745 17.9041 86.8377 17.4257C87.1709 17.2758 87.4895 17.1325 87.7571 16.9987C89.5328 16.0641 93.0842 13.3538 93.0842 9.98932C93.0842 5.78371 84.673 5.78371 84.3926 5.78371C84.2765 5.78371 84.0642 5.6875 83.8154 5.57478C83.4636 5.41538 83.0389 5.22296 82.7104 5.22296C82.3638 5.22296 82.2315 5.54424 82.0485 5.98824C81.9355 6.26265 81.8031 6.58393 81.5889 6.90521C81.4721 7.08043 81.3553 7.24349 81.2435 7.39945L81.2431 7.40001L81.2429 7.40032C80.8185 7.99261 80.4674 8.48263 80.4674 9.1482C80.4674 9.6471 80.9606 9.85008 81.3034 9.99118C81.5386 10.088 81.703 10.1556 81.5889 10.2697ZM85.7942 9.98952C84.897 10.4381 84.8596 13.1671 84.9531 14.4755C84.9878 15.597 88.8783 12.2325 88.8783 11.111C88.8783 9.98952 86.9157 9.42877 85.7942 9.98952ZM4.48581 24.3516C4.59523 22.7889 4.6864 21.0423 4.75935 19.1118C4.83229 17.4572 4.90523 15.5267 4.97818 13.3205C5.05112 11.0959 5.12406 8.65987 5.197 6.0124H7.24852H9.4368C10.2574 5.99402 11.1418 5.96644 12.0901 5.92967C12.1813 6.83054 12.2907 7.79576 12.4183 8.82533L12.8013 11.914C12.9472 13.0723 13.1113 14.2949 13.2937 15.5819C13.4942 14.1295 13.704 12.4932 13.9228 10.673C14.1416 8.85291 14.3331 6.97762 14.4972 5.04718C15.2084 5.06557 15.9652 5.09314 16.7676 5.12991C17.4423 5.16668 18.1991 5.19426 19.0379 5.21265C19.895 5.23103 20.7612 5.25861 21.6365 5.29538C21.6365 6.85812 21.673 8.64148 21.7459 10.6455C21.8006 12.3737 21.8736 14.442 21.9647 16.8505C22.0741 19.2589 22.2291 21.9799 22.4297 25.0135C21.9191 25.0319 21.3812 25.0594 20.8159 25.0962C20.3418 25.133 19.7947 25.1606 19.1747 25.1789C18.5729 25.1973 17.962 25.2157 17.342 25.2341C17.3602 24.0207 17.3693 22.6602 17.3693 21.1526C17.3693 19.8656 17.3511 18.3397 17.3146 16.5747C17.2964 14.7913 17.2508 12.8425 17.1779 10.7282C17.0502 11.5004 16.9226 12.3461 16.7949 13.2654C16.6673 14.1846 16.5396 15.1406 16.412 16.1334C16.2843 17.1079 16.1658 18.1007 16.0564 19.1118C15.9469 20.1046 15.8558 21.0791 15.7828 22.0351C15.2905 22.0351 14.7707 22.0259 14.2237 22.0075C13.7495 21.9891 13.2207 21.9799 12.6372 21.9799C12.0719 21.9615 11.4974 21.934 10.9139 21.8972C10.841 21.125 10.7407 20.2333 10.613 19.2221C10.5036 18.3397 10.3668 17.2825 10.2027 16.0507C10.0386 14.8005 9.82887 13.3665 9.57357 11.7486V17.5399C9.59181 19.7094 9.62828 22.0167 9.68299 24.4619C9.06297 24.4435 8.45208 24.4251 7.8503 24.4068C7.32146 24.3884 6.75616 24.3792 6.15438 24.3792C5.57084 24.3792 5.01465 24.37 4.48581 24.3516ZM23.7157 19.1873C23.7339 21.1428 23.7521 22.9081 23.7704 24.4833C24.9192 24.5014 26.0134 24.5195 27.0528 24.5376C28.0922 24.5557 29.0131 24.5738 29.8155 24.5919C30.7455 24.6281 31.6117 24.6553 32.4141 24.6734V22.6908C32.4141 22.1295 32.4232 21.6588 32.4414 21.2786C32.4414 20.8259 32.4506 20.4457 32.4688 20.1379C31.8853 20.1198 31.3564 20.1017 30.8823 20.0836C30.4082 20.0474 30.007 20.0202 29.6787 20.0021C29.2775 19.984 28.9311 19.9659 28.6393 19.9478C28.5846 19.2235 28.5572 18.6442 28.5572 18.2096V17.5578C29.0131 17.5578 29.4417 17.5669 29.8429 17.585H30.9096H31.867C31.8488 16.9151 31.8397 16.3085 31.8397 15.7653V14.2988V12.9951C30.7455 13.0314 29.934 13.0495 29.4052 13.0495C28.8764 13.0314 28.5572 13.0223 28.4478 13.0223V12.289C28.4478 12.0536 28.4387 11.7911 28.4205 11.5014C28.4205 11.1936 28.4296 10.8587 28.4478 10.4965C28.8125 10.4784 29.2228 10.4694 29.6787 10.4694C30.1529 10.4694 30.5996 10.4603 31.0191 10.4422C31.5114 10.4422 32.0129 10.4332 32.5235 10.4151C32.487 9.70894 32.4688 9.06618 32.4688 8.4868V6.96591V5.60797C30.8093 5.62608 29.4143 5.64418 28.2837 5.66229H25.5483C24.7277 5.68039 24.0621 5.68945 23.5515 5.68945C23.588 8.44153 23.6154 10.9582 23.6336 13.2396C23.6701 15.5209 23.6974 17.5035 23.7157 19.1873ZM33.6717 10.4014C33.6897 10.1486 33.6988 9.80561 33.6988 9.37231C33.6988 9.01122 33.6897 8.53278 33.6717 7.93698C33.6717 7.34119 33.6627 6.60096 33.6447 5.7163H36.3488C37.2502 5.7163 38.3588 5.70727 39.6748 5.68921C40.9908 5.67116 42.5322 5.64408 44.2989 5.60797C44.2809 5.98711 44.2628 6.41139 44.2448 6.8808C44.2268 7.29605 44.2087 7.80158 44.1907 8.39737C44.1907 8.97511 44.1997 9.64312 44.2178 10.4014H43.4606H42.5412C42.1987 10.3834 41.8021 10.3743 41.3514 10.3743V12.92V16.0885C41.3694 17.244 41.3875 18.5259 41.4055 19.9341C41.4235 21.3424 41.4415 22.9131 41.4596 24.6463C41.117 24.6283 40.7114 24.6192 40.2427 24.6192H38.7014C38.1065 24.6373 37.4034 24.6553 36.5922 24.6734C36.6102 23.554 36.6192 22.2631 36.6192 20.8007C36.6192 19.555 36.6102 18.0565 36.5922 16.3052C36.5922 14.5539 36.5831 12.577 36.5651 10.3743L33.6717 10.4014ZM48.7922 12.8305C48.9328 11.432 49.047 10.3699 49.1349 9.6441C49.2052 10.3699 49.2843 11.1665 49.3721 12.0339C49.46 12.7774 49.5479 13.6448 49.6357 14.6362C49.7412 15.6275 49.8466 16.6808 49.952 17.796H49.4512C49.3106 17.796 49.1437 17.8049 48.9504 17.8226C48.7571 17.8226 48.555 17.8137 48.3441 17.796C48.5022 15.8665 48.6516 14.2113 48.7922 12.8305ZM43.942 18.9378C43.6608 20.7966 43.406 22.434 43.1775 23.8502H45.2863C45.8838 23.8502 46.3759 23.8591 46.7625 23.8768C47.2194 23.8945 47.5972 23.9033 47.896 23.9033L48.0541 21.6728H49.3194C49.706 21.6728 50.0223 21.6817 50.2684 21.6994C50.3035 22.2305 50.3299 22.6819 50.3474 23.0536C50.3826 23.4254 50.4089 23.7352 50.4265 23.983C50.4441 24.2662 50.4617 24.4964 50.4792 24.6734C51.2525 24.6557 51.9466 24.638 52.5617 24.6203H54.1433C54.6529 24.6203 55.1098 24.6291 55.514 24.6468C55.0747 22.1154 54.6705 19.7079 54.3014 17.4243C53.95 15.1407 53.6424 13.1138 53.3788 11.3435C53.0625 9.29006 52.7901 7.3782 52.5617 5.60797H50.611C49.996 5.60797 49.2755 5.61682 48.4495 5.63452C47.6412 5.65223 46.7625 5.67878 45.8135 5.71419C45.4445 8.51116 45.1018 11.0249 44.7855 13.2554C44.4692 15.4682 44.188 17.3623 43.942 18.9378Z" fill="#121212"/>
</svg>
