<svg width="46" height="42" viewBox="0 0 46 42" fill="none" xmlns="http://www.w3.org/2000/svg">
<path fill-rule="evenodd" clip-rule="evenodd" d="M4 0C1.79086 0 0 1.79086 0 4V19C0 20.1046 0.895431 21 2 21C3.10457 21 4 21.8954 4 23L4 38C4 40.2091 5.79086 42 8 42L42 42C44.2091 42 46 40.2091 46 38V23C46 21.8954 45.1046 21 44 21C42.8954 21 42 20.1046 42 19V4C42 1.79086 40.2091 0 38 0H4ZM40 23C40 21.8954 39.1046 21 38 21C36.8954 21 36 20.1046 36 19V8C36 6.89543 35.1046 6 34 6H8C6.89543 6 6 6.89543 6 8V19C6 20.1046 6.89543 21 8 21C9.10457 21 10 21.8954 10 23L10 34C10 35.1046 10.8954 36 12 36L38 36C39.1046 36 40 35.1046 40 34V23Z" fill="#FDFF5D"/>
</svg>
