<svg width="50" height="36" viewBox="0 0 50 36" fill="none" xmlns="http://www.w3.org/2000/svg">
<path fill-rule="evenodd" clip-rule="evenodd" d="M9 0C4.02944 0 0 4.02944 0 9V16C0 17.1046 0.895431 18 2 18V18C3.10457 18 4 18.8954 4 20L4 27C4 31.9706 8.02944 36 13 36L41 36C45.9706 36 50 31.9706 50 27V20C50 18.8954 49.1046 18 48 18V18C46.8954 18 46 17.1046 46 16V9C46 4.02944 41.9706 0 37 0H9ZM44 20C44 18.8954 43.1046 18 42 18V18C40.8954 18 40 17.1046 40 16V9C40 7.34315 38.6569 6 37 6H9C7.34315 6 6 7.34315 6 9V16C6 17.1046 6.89543 18 8 18V18C9.10457 18 10 18.8954 10 20L10 27C10 28.6569 11.3431 30 13 30L41 30C42.6569 30 44 28.6569 44 27V20Z" fill="#FDFF5D"/>
<circle cx="32" cy="18" r="4" fill="#FDFF5D"/>
</svg>