<svg width="46" height="42" viewBox="0 0 46 42" fill="none" xmlns="http://www.w3.org/2000/svg">
<path fill-rule="evenodd" clip-rule="evenodd" d="M7.99998 21C6.89543 21 5.98602 20.0997 6.13154 19.0048C7.10723 11.6638 13.3922 6 21 6C28.6078 6 34.8928 11.6638 35.8685 19.0048C36.014 20.0997 36.8954 21 38 21C39.1045 21 40.0139 21.9003 39.8684 22.9952C38.8927 30.3363 32.6078 36 24.9999 36C17.3921 36 11.1072 30.3362 10.1315 22.9952C9.98596 21.9003 9.10453 21 7.99998 21ZM4.09375 22.9979C3.98997 21.8982 3.10453 21 1.99998 21C0.895428 21 -0.00997062 20.1018 0.0938116 19.0021C1.09994 8.34124 10.0759 0 21 0C31.9241 0 40.9001 8.34124 41.9062 19.0021C42.01 20.1018 42.8954 21 44 21C45.1045 21 46.0099 21.8982 45.9061 22.9979C44.9 33.6588 35.9241 42 24.9999 42C14.0758 42 5.09988 33.6588 4.09375 22.9979Z" fill="#FDFF5D"/>
</svg>
