<svg width="155" height="30" viewBox="0 0 155 30" fill="none" xmlns="http://www.w3.org/2000/svg">
<path d="M103.004 29.5808L98.8836 18.9713C98.7231 18.5655 98.3306 18.2934 97.8936 18.2934H96.2257C95.7886 18.2934 95.3962 18.0259 95.2356 17.6156L88.5551 0.419206H82.5167L76.0146 16.8441C75.7381 17.5398 76.2509 18.2934 77.0002 18.2934C77.7494 18.2934 78.2622 19.0471 77.9857 19.7428L74.0925 29.5808H103.004ZM85.3932 5.64144L90.0134 17.6156C90.1695 18.0259 90.5664 18.2934 91.0034 18.2934H92.6713C93.1084 18.2934 93.5053 18.5655 93.6614 18.9713L96.0473 25.1613H81.0005L83.092 19.7339C83.3596 19.0382 82.8467 18.2934 82.102 18.2934H82.0708C81.326 18.2934 80.8131 17.5487 81.0807 16.853L85.3977 5.64144H85.3932ZM154.393 25.1256V29.5808H132.228V19.6313C132.228 18.891 131.631 18.2934 130.89 18.2934H130.444C129.704 18.2934 129.107 17.6959 129.107 16.9556V0.419206H150.861V4.87885H134.11V13.8338H148.359V18.2934H138.57C137.83 18.2934 137.232 18.891 137.232 19.6313V25.1256H154.393ZM34.7049 19.6313V29.5808H29.7859V19.6313C29.7859 18.891 29.1928 18.2934 28.4525 18.2934H28.0065C27.2662 18.2934 26.6687 17.6959 26.6687 16.9556V4.87885H18.2533V16.9556C18.2533 17.6959 18.8509 18.2934 19.5912 18.2934H20.0372C20.7775 18.2934 21.3751 18.891 21.3751 19.6313V29.5808H16.4516V19.6313C16.4516 18.891 15.8585 18.2934 15.1182 18.2934H14.6722C13.9319 18.2934 13.3343 17.6959 13.3343 16.9556V4.87885H4.91898V16.9556C4.91898 17.6959 5.51658 18.2934 6.25688 18.2934H6.70284C7.44314 18.2934 8.04073 18.891 8.04073 19.6313V29.5808H3.12175V19.6313C3.12175 18.891 2.52416 18.2934 1.78386 18.2934H1.33789C0.597592 18.2934 0 17.6959 0 16.9556V0.419206H31.5832V16.9556C31.5832 17.6959 32.1808 18.2934 32.9211 18.2934H33.367C34.1073 18.2934 34.7049 18.891 34.7049 19.6313ZM71.1937 18.2934H70.1769C69.6685 18.2934 69.2047 17.9991 68.9773 17.5442C68.8212 17.2187 68.616 16.9422 68.3752 16.7103C67.6795 16.0413 66.5423 15.7069 64.9591 15.7069C66.4888 15.1539 67.6795 14.2486 68.5402 12.9999C69.4009 11.7512 69.8335 10.1947 69.8335 8.33507C69.8335 6.83663 69.4366 5.4809 68.6472 4.27234C67.8534 3.06377 66.7742 2.11833 65.3962 1.44046C64.0226 0.758139 62.4885 0.419206 60.7938 0.419206H47.6691V16.9556C47.6691 17.6959 48.2622 18.2934 49.0025 18.2934H49.4485C50.1888 18.2934 50.7864 18.891 50.7864 19.6313V29.5808H55.7856V19.6313C55.7856 18.891 56.3877 18.2934 57.128 18.2934H64.7495C65.1553 18.2934 65.5077 18.3202 65.8154 18.3737H65.8198C66.3372 18.4585 66.7118 18.619 66.9526 18.8554C67.3406 19.23 67.5368 19.9703 67.5368 21.0807V29.5808H72.5361V19.832C72.5361 19.7473 72.5361 19.6492 72.5271 19.5466C72.4781 18.842 71.8983 18.2934 71.1892 18.2934H71.1937ZM64.2367 11.6664C63.8308 12.3621 63.2332 12.9017 62.4439 13.2942C61.6501 13.6822 60.6868 13.8739 59.5496 13.8739H52.6728V4.87885H59.5496C61.271 4.87885 62.5821 5.24008 63.4874 5.95808C64.3883 6.68054 64.8387 7.76423 64.8387 9.20916C64.8387 10.1546 64.638 10.9752 64.2367 11.6664ZM45.3412 19.6313V29.5808H40.3374V19.6313C40.3374 18.891 39.7443 18.2934 39.004 18.2934H38.5581C37.8178 18.2934 37.2202 17.6959 37.2202 16.9556V0.419206H42.2194V16.9556C42.2194 17.6959 42.817 18.2934 43.5573 18.2934H44.0033C44.7436 18.2934 45.3412 18.891 45.3412 19.6313ZM128.473 19.6313V29.5808H124.094V26.5393C123.621 27.1235 122.988 27.681 122.199 28.2072C121.405 28.7335 120.455 29.166 119.344 29.5005C118.234 29.8305 116.985 30 115.594 30C112.847 30 110.421 29.3534 108.325 28.0601C106.229 26.7712 104.601 24.9874 103.45 22.7085C103.018 21.8522 102.545 20.2869 102.26 19.2701C102.099 18.6904 101.573 18.2934 100.971 18.2934H100.039C99.3608 18.2934 98.781 17.7895 98.7097 17.1161C98.6383 16.4427 98.5982 15.7247 98.5982 15.0022C98.5982 12.1391 99.1824 9.57039 100.351 7.29151C101.515 5.0171 103.183 3.23324 105.35 1.93994C107.513 0.646648 110.028 0 112.891 0C115.335 0 117.449 0.441504 119.242 1.31559C121.035 2.18968 122.431 3.39825 123.429 4.94128C124.428 6.47986 124.999 8.25033 125.138 10.2527H120.138C119.915 8.44656 119.206 7.02839 118.015 6.00268C116.82 4.9725 115.179 4.45964 113.096 4.45964H112.682C110.822 4.45964 109.208 4.88331 107.847 5.73064C106.487 6.57797 105.439 7.79099 104.703 9.37416C103.968 10.9573 103.597 12.8348 103.597 15.0022C103.597 15.7514 103.642 16.4695 103.731 17.1518C103.82 17.8341 104.391 18.2934 105.056 18.2934H106.046C106.63 18.2934 107.152 18.6725 107.321 19.2344C107.473 19.7205 107.66 20.2824 107.816 20.6258C108.552 22.209 109.6 23.422 110.96 24.2694C112.321 25.1167 113.935 25.5404 115.795 25.5404H116.209C117.601 25.5404 118.863 25.2862 120 24.7688C121.142 24.256 122.1 23.5737 122.774 22.6461C123.447 21.7184 123.817 20.6838 123.982 19.89C124.147 19.0962 123.51 18.2934 122.667 18.2934H112.882V13.8338H121.797C122.934 13.8338 123.768 14.1817 124.42 14.7525C125.008 15.2698 125.227 16.2911 125.307 17.1027C125.374 17.7806 125.954 18.2934 126.636 18.2934H127.122C127.862 18.2934 128.46 18.891 128.46 19.6313H128.473Z" fill="#FDFF5D"/>
</svg>
