<svg width="124" height="24" viewBox="0 0 124 24" fill="none" xmlns="http://www.w3.org/2000/svg">
<path d="M82.4035 23.6646L79.1069 15.177C78.9784 14.8524 78.6645 14.6348 78.3148 14.6348H76.9805C76.6309 14.6348 76.3169 14.4207 76.1885 14.0925L70.8441 0.335365H66.0134L60.8117 13.4752C60.5905 14.0318 61.0007 14.6348 61.6001 14.6348C62.1995 14.6348 62.6098 15.2377 62.3886 15.7943L59.274 23.6646H82.4035ZM68.3146 4.51316L72.0107 14.0925C72.1356 14.4207 72.4531 14.6348 72.8027 14.6348H74.1371C74.4867 14.6348 74.8042 14.8524 74.9291 15.177L76.8378 20.129H64.8004L66.4736 15.7871C66.6877 15.2306 66.2774 14.6348 65.6816 14.6348H65.6566C65.0608 14.6348 64.6505 14.0389 64.8646 13.4824L68.3181 4.51316H68.3146ZM123.514 20.1005V23.6646H105.783V15.7051C105.783 15.1128 105.305 14.6348 104.712 14.6348H104.356C103.763 14.6348 103.285 14.1567 103.285 13.5644V0.335365H120.689V3.90308H107.288V11.067H118.687V14.6348H110.856C110.264 14.6348 109.786 15.1128 109.786 15.7051V20.1005H123.514ZM27.7639 15.7051V23.6646H23.8288V15.7051C23.8288 15.1128 23.3542 14.6348 22.762 14.6348H22.4052C21.813 14.6348 21.3349 14.1567 21.3349 13.5644V3.90308H14.6026V13.5644C14.6026 14.1567 15.0807 14.6348 15.673 14.6348H16.0297C16.622 14.6348 17.1 15.1128 17.1 15.7051V23.6646H13.1613V15.7051C13.1613 15.1128 12.6868 14.6348 12.0945 14.6348H11.7378C11.1455 14.6348 10.6675 14.1567 10.6675 13.5644V3.90308H3.93519V13.5644C3.93519 14.1567 4.41326 14.6348 5.0055 14.6348H5.36227C5.95451 14.6348 6.43259 15.1128 6.43259 15.7051V23.6646H2.4974V15.7051C2.4974 15.1128 2.01933 14.6348 1.42708 14.6348H1.07031C0.478073 14.6348 0 14.1567 0 13.5644V0.335365H25.2665V13.5644C25.2665 14.1567 25.7446 14.6348 26.3369 14.6348H26.6936C27.2859 14.6348 27.7639 15.1128 27.7639 15.7051ZM56.955 14.6348H56.1415C55.7348 14.6348 55.3638 14.3993 55.1818 14.0354C55.0569 13.7749 54.8928 13.5537 54.7002 13.3682C54.1436 12.8331 53.2338 12.5655 51.9673 12.5655C53.191 12.1231 54.1436 11.3988 54.8322 10.3999C55.5207 9.40092 55.8668 8.15579 55.8668 6.66805C55.8668 5.4693 55.5493 4.38472 54.9178 3.41787C54.2827 2.45102 53.4194 1.69466 52.3169 1.15237C51.2181 0.606511 49.9908 0.335365 48.6351 0.335365H38.1353V13.5644C38.1353 14.1567 38.6098 14.6348 39.202 14.6348H39.5588C40.151 14.6348 40.6291 15.1128 40.6291 15.7051V23.6646H44.6285V15.7051C44.6285 15.1128 45.1102 14.6348 45.7024 14.6348H51.7996C52.1243 14.6348 52.4061 14.6562 52.6523 14.699H52.6559C53.0697 14.7668 53.3694 14.8952 53.5621 15.0843C53.8725 15.384 54.0294 15.9762 54.0294 16.8646V23.6646H58.0288V15.8656C58.0288 15.7978 58.0288 15.7193 58.0217 15.6373C57.9825 15.0736 57.5187 14.6348 56.9514 14.6348H56.955ZM51.3893 9.33314C51.0647 9.8897 50.5866 10.3214 49.9551 10.6354C49.3201 10.9457 48.5494 11.0992 47.6397 11.0992H42.1382V3.90308H47.6397C49.0168 3.90308 50.0657 4.19206 50.79 4.76646C51.5106 5.34443 51.871 6.21139 51.871 7.36733C51.871 8.12368 51.7104 8.78014 51.3893 9.33314ZM36.2729 15.7051V23.6646H32.27V15.7051C32.27 15.1128 31.7955 14.6348 31.2032 14.6348H30.8464C30.2542 14.6348 29.7761 14.1567 29.7761 13.5644V0.335365H33.7755V13.5644C33.7755 14.1567 34.2536 14.6348 34.8458 14.6348H35.2026C35.7949 14.6348 36.2729 15.1128 36.2729 15.7051ZM102.779 15.7051V23.6646H99.2752V21.2315C98.897 21.6988 98.3904 22.1448 97.7589 22.5658C97.1238 22.9868 96.3639 23.3328 95.4755 23.6004C94.5872 23.8644 93.5882 24 92.4751 24C90.2774 24 88.3366 23.4827 86.6597 22.448C84.9829 21.417 83.6807 19.9899 82.7602 18.1668C82.4142 17.4818 82.036 16.2295 81.8076 15.4161C81.6792 14.9523 81.2582 14.6348 80.7766 14.6348H80.0309C79.4886 14.6348 79.0248 14.2316 78.9677 13.6929C78.9107 13.1542 78.8785 12.5798 78.8785 12.0018C78.8785 9.71131 79.3459 7.65631 80.2807 5.83321C81.2118 4.01368 82.5462 2.58659 84.2801 1.55195C86.0104 0.517318 88.0226 0 90.3131 0C92.2682 0 93.9593 0.353204 95.3935 1.05248C96.8277 1.75175 97.9444 2.7186 98.7436 3.95303C99.5427 5.18389 99.9994 6.60027 100.11 8.20217H96.1106C95.9322 6.75725 95.365 5.62271 94.4124 4.80214C93.4562 3.978 92.1433 3.56771 90.4772 3.56771H90.1454C88.6577 3.56771 87.3661 3.90665 86.278 4.58451C85.1898 5.26238 84.3514 6.23279 83.7627 7.49933C83.1741 8.76587 82.878 10.2679 82.878 12.0018C82.878 12.6012 82.9136 13.1756 82.985 13.7214C83.0563 14.2673 83.513 14.6348 84.0446 14.6348H84.8366C85.304 14.6348 85.7214 14.938 85.857 15.3875C85.9783 15.7764 86.1281 16.226 86.253 16.5007C86.8417 17.7672 87.6801 18.7376 88.7682 19.4155C89.8564 20.0934 91.1479 20.4323 92.6357 20.4323H92.9674C94.0806 20.4323 95.0902 20.2289 96 19.8151C96.9133 19.4048 97.6804 18.8589 98.2191 18.1168C98.7578 17.3748 99.054 16.547 99.186 15.912C99.318 15.2769 98.8078 14.6348 98.1335 14.6348H90.3059V11.067H97.4378C98.3475 11.067 99.0147 11.3453 99.5356 11.802C100.007 12.2158 100.181 13.0329 100.246 13.6822C100.299 14.2245 100.763 14.6348 101.309 14.6348H101.698C102.29 14.6348 102.768 15.1128 102.768 15.7051H102.779Z" fill="#FDFF5D"/>
</svg>
